<svg width="519" height="378" viewBox="0 0 519 378" fill="none" xmlns="http://www.w3.org/2000/svg">
<rect x="56.7251" y="60.0359" width="406" height="250.814" rx="7" fill="#F2F7F5" stroke="#00473E" stroke-width="6"/>
<path d="M265.743 221.572C262.18 224.257 257.27 224.257 253.707 221.572L59.2917 75.0615C51.6262 69.2848 55.7116 57.0753 65.3101 57.0753L454.14 57.0754C463.739 57.0754 467.824 69.2848 460.159 75.0616L265.743 221.572Z" fill="#00473E"/>
<path d="M254.416 125.127C257.445 122.44 262.005 122.44 265.034 125.127L458.665 296.914C464.171 301.798 460.716 310.898 453.356 310.898H66.0943C58.7345 310.898 55.2796 301.798 60.7851 296.914L254.416 125.127Z" stroke="#00473E" stroke-width="4"/>
<ellipse cx="447.939" cy="68.7638" rx="42.8138" ry="42.8138" fill="#FA5246"/>
<path d="M432.331 80.3479C432.331 77.6279 432.747 75.3719 433.579 73.5799C434.411 71.7559 435.723 70.2839 437.515 69.1639C439.307 68.0119 441.675 67.1159 444.619 66.4759L449.179 65.4199C450.971 64.9719 452.251 64.4279 453.019 63.7879C453.787 63.1159 454.171 62.2679 454.171 61.2439C454.171 60.1879 453.755 59.3719 452.923 58.7959C452.091 58.1879 450.987 57.8839 449.611 57.8839C447.915 57.8839 446.187 58.3799 444.427 59.3719C442.667 60.3319 441.259 61.6279 440.203 63.2599L433.195 58.6039C434.635 55.8519 436.939 53.6599 440.107 52.0279C443.307 50.3639 446.827 49.5319 450.667 49.5319C453.611 49.5319 456.203 49.9959 458.443 50.9239C460.683 51.8519 462.427 53.1959 463.675 54.9559C464.923 56.6839 465.547 58.7639 465.547 61.1959C465.547 63.9479 464.699 66.1239 463.003 67.7239C461.307 69.3239 458.539 70.5559 454.699 71.4199L449.371 72.6679C447.419 73.1799 446.027 73.8039 445.195 74.5399C444.363 75.2439 443.947 76.2039 443.947 77.4199H465.499V84.7639H432.331V80.3479Z" fill="#F2F7F5"/>
</svg>
