<svg width="338" height="151" viewBox="0 0 338 151" fill="none" xmlns="http://www.w3.org/2000/svg">
<g clip-path="url(#clip0_405_94)">
<path d="M146.693 56.6363C147.115 56.6363 147.457 56.2937 147.457 55.871C147.457 55.4483 147.115 55.1057 146.693 55.1057C146.271 55.1057 145.929 55.4483 145.929 55.871C145.929 56.2937 146.271 56.6363 146.693 56.6363Z" fill="#EBCCDC"/>
<path d="M146.693 69.2619C147.115 69.2619 147.457 68.9193 147.457 68.4966C147.457 68.074 147.115 67.7313 146.693 67.7313C146.271 67.7313 145.929 68.074 145.929 68.4966C145.929 68.9193 146.271 69.2619 146.693 69.2619Z" fill="#EBCCDC"/>
<path d="M146.693 81.8872C147.115 81.8872 147.457 81.5445 147.457 81.1219C147.457 80.6992 147.115 80.3566 146.693 80.3566C146.271 80.3566 145.929 80.6992 145.929 81.1219C145.929 81.5445 146.271 81.8872 146.693 81.8872Z" fill="#EBCCDC"/>
<path d="M146.693 94.5128C147.115 94.5128 147.457 94.1701 147.457 93.7475C147.457 93.3248 147.115 92.9822 146.693 92.9822C146.271 92.9822 145.929 93.3248 145.929 93.7475C145.929 94.1701 146.271 94.5128 146.693 94.5128Z" fill="#EBCCDC"/>
<path d="M146.693 107.139C147.115 107.139 147.457 106.796 147.457 106.373C147.457 105.951 147.115 105.608 146.693 105.608C146.271 105.608 145.929 105.951 145.929 106.373C145.929 106.796 146.271 107.139 146.693 107.139Z" fill="#EBCCDC"/>
<path d="M146.693 119.764C147.115 119.764 147.457 119.421 147.457 118.999C147.457 118.576 147.115 118.234 146.693 118.234C146.271 118.234 145.929 118.576 145.929 118.999C145.929 119.421 146.271 119.764 146.693 119.764Z" fill="#EBCCDC"/>
<path d="M146.693 132.389C147.115 132.389 147.457 132.047 147.457 131.624C147.457 131.201 147.115 130.859 146.693 130.859C146.271 130.859 145.929 131.201 145.929 131.624C145.929 132.047 146.271 132.389 146.693 132.389Z" fill="#EBCCDC"/>
<path d="M136.42 56.6363C136.842 56.6363 137.184 56.2937 137.184 55.871C137.184 55.4483 136.842 55.1057 136.42 55.1057C135.999 55.1057 135.657 55.4483 135.657 55.871C135.657 56.2937 135.999 56.6363 136.42 56.6363Z" fill="#EBCCDC"/>
<path d="M136.42 69.2619C136.842 69.2619 137.184 68.9193 137.184 68.4966C137.184 68.074 136.842 67.7313 136.42 67.7313C135.999 67.7313 135.657 68.074 135.657 68.4966C135.657 68.9193 135.999 69.2619 136.42 69.2619Z" fill="#EBCCDC"/>
<path d="M136.42 81.8872C136.842 81.8872 137.184 81.5445 137.184 81.1219C137.184 80.6992 136.842 80.3566 136.42 80.3566C135.999 80.3566 135.657 80.6992 135.657 81.1219C135.657 81.5445 135.999 81.8872 136.42 81.8872Z" fill="#EBCCDC"/>
<path d="M136.42 94.5128C136.842 94.5128 137.184 94.1701 137.184 93.7475C137.184 93.3248 136.842 92.9822 136.42 92.9822C135.999 92.9822 135.657 93.3248 135.657 93.7475C135.657 94.1701 135.999 94.5128 136.42 94.5128Z" fill="#EBCCDC"/>
<path d="M136.42 107.139C136.842 107.139 137.184 106.796 137.184 106.373C137.184 105.951 136.842 105.608 136.42 105.608C135.999 105.608 135.657 105.951 135.657 106.373C135.657 106.796 135.999 107.139 136.42 107.139Z" fill="#EBCCDC"/>
<path d="M136.42 119.764C136.842 119.764 137.184 119.421 137.184 118.999C137.184 118.576 136.842 118.234 136.42 118.234C135.999 118.234 135.657 118.576 135.657 118.999C135.657 119.421 135.999 119.764 136.42 119.764Z" fill="#EBCCDC"/>
<path d="M136.42 132.389C136.842 132.389 137.184 132.047 137.184 131.624C137.184 131.201 136.842 130.859 136.42 130.859C135.999 130.859 135.657 131.201 135.657 131.624C135.657 132.047 135.999 132.389 136.42 132.389Z" fill="#EBCCDC"/>
<path d="M167.237 56.6363C167.659 56.6363 168.001 56.2937 168.001 55.871C168.001 55.4483 167.659 55.1057 167.237 55.1057C166.815 55.1057 166.473 55.4483 166.473 55.871C166.473 56.2937 166.815 56.6363 167.237 56.6363Z" fill="#EBCCDC"/>
<path d="M167.237 69.2619C167.659 69.2619 168.001 68.9193 168.001 68.4966C168.001 68.074 167.659 67.7313 167.237 67.7313C166.815 67.7313 166.473 68.074 166.473 68.4966C166.473 68.9193 166.815 69.2619 167.237 69.2619Z" fill="#EBCCDC"/>
<path d="M167.237 81.8872C167.659 81.8872 168.001 81.5445 168.001 81.1219C168.001 80.6992 167.659 80.3566 167.237 80.3566C166.815 80.3566 166.473 80.6992 166.473 81.1219C166.473 81.5445 166.815 81.8872 167.237 81.8872Z" fill="#EBCCDC"/>
<path d="M167.237 94.5128C167.659 94.5128 168.001 94.1701 168.001 93.7475C168.001 93.3248 167.659 92.9822 167.237 92.9822C166.815 92.9822 166.473 93.3248 166.473 93.7475C166.473 94.1701 166.815 94.5128 167.237 94.5128Z" fill="#EBCCDC"/>
<path d="M167.237 107.139C167.659 107.139 168.001 106.796 168.001 106.373C168.001 105.951 167.659 105.608 167.237 105.608C166.815 105.608 166.473 105.951 166.473 106.373C166.473 106.796 166.815 107.139 167.237 107.139Z" fill="#EBCCDC"/>
<path d="M167.237 119.764C167.659 119.764 168.001 119.421 168.001 118.999C168.001 118.576 167.659 118.234 167.237 118.234C166.815 118.234 166.473 118.576 166.473 118.999C166.473 119.421 166.815 119.764 167.237 119.764Z" fill="#EBCCDC"/>
<path d="M167.237 132.389C167.659 132.389 168.001 132.047 168.001 131.624C168.001 131.201 167.659 130.859 167.237 130.859C166.815 130.859 166.473 131.201 166.473 131.624C166.473 132.047 166.815 132.389 167.237 132.389Z" fill="#EBCCDC"/>
<path d="M156.965 56.6363C157.386 56.6363 157.728 56.2937 157.728 55.871C157.728 55.4483 157.386 55.1057 156.965 55.1057C156.543 55.1057 156.201 55.4483 156.201 55.871C156.201 56.2937 156.543 56.6363 156.965 56.6363Z" fill="#EBCCDC"/>
<path d="M156.965 69.2619C157.386 69.2619 157.728 68.9193 157.728 68.4966C157.728 68.074 157.386 67.7313 156.965 67.7313C156.543 67.7313 156.201 68.074 156.201 68.4966C156.201 68.9193 156.543 69.2619 156.965 69.2619Z" fill="#EBCCDC"/>
<path d="M156.965 81.8872C157.386 81.8872 157.728 81.5445 157.728 81.1219C157.728 80.6992 157.386 80.3566 156.965 80.3566C156.543 80.3566 156.201 80.6992 156.201 81.1219C156.201 81.5445 156.543 81.8872 156.965 81.8872Z" fill="#EBCCDC"/>
<path d="M156.965 94.5128C157.386 94.5128 157.728 94.1701 157.728 93.7475C157.728 93.3248 157.386 92.9822 156.965 92.9822C156.543 92.9822 156.201 93.3248 156.201 93.7475C156.201 94.1701 156.543 94.5128 156.965 94.5128Z" fill="#EBCCDC"/>
<path d="M156.965 107.139C157.386 107.139 157.728 106.796 157.728 106.373C157.728 105.951 157.386 105.608 156.965 105.608C156.543 105.608 156.201 105.951 156.201 106.373C156.201 106.796 156.543 107.139 156.965 107.139Z" fill="#EBCCDC"/>
<path d="M156.965 119.764C157.386 119.764 157.728 119.421 157.728 118.999C157.728 118.576 157.386 118.234 156.965 118.234C156.543 118.234 156.201 118.576 156.201 118.999C156.201 119.421 156.543 119.764 156.965 119.764Z" fill="#EBCCDC"/>
<path d="M156.965 132.389C157.386 132.389 157.728 132.047 157.728 131.624C157.728 131.201 157.386 130.859 156.965 130.859C156.543 130.859 156.201 131.201 156.201 131.624C156.201 132.047 156.543 132.389 156.965 132.389Z" fill="#EBCCDC"/>
<path d="M126.149 56.6363C126.571 56.6363 126.913 56.2937 126.913 55.871C126.913 55.4483 126.571 55.1057 126.149 55.1057C125.727 55.1057 125.385 55.4483 125.385 55.871C125.385 56.2937 125.727 56.6363 126.149 56.6363Z" fill="#EBCCDC"/>
<path d="M126.149 69.2619C126.571 69.2619 126.913 68.9193 126.913 68.4966C126.913 68.074 126.571 67.7313 126.149 67.7313C125.727 67.7313 125.385 68.074 125.385 68.4966C125.385 68.9193 125.727 69.2619 126.149 69.2619Z" fill="#EBCCDC"/>
<path d="M126.149 81.8872C126.571 81.8872 126.913 81.5445 126.913 81.1219C126.913 80.6992 126.571 80.3566 126.149 80.3566C125.727 80.3566 125.385 80.6992 125.385 81.1219C125.385 81.5445 125.727 81.8872 126.149 81.8872Z" fill="#EBCCDC"/>
<path d="M126.149 94.5128C126.571 94.5128 126.913 94.1701 126.913 93.7475C126.913 93.3248 126.571 92.9822 126.149 92.9822C125.727 92.9822 125.385 93.3248 125.385 93.7475C125.385 94.1701 125.727 94.5128 126.149 94.5128Z" fill="#EBCCDC"/>
<path d="M126.149 107.139C126.571 107.139 126.913 106.796 126.913 106.373C126.913 105.951 126.571 105.608 126.149 105.608C125.727 105.608 125.385 105.951 125.385 106.373C125.385 106.796 125.727 107.139 126.149 107.139Z" fill="#EBCCDC"/>
<path d="M126.149 119.764C126.571 119.764 126.913 119.421 126.913 118.999C126.913 118.576 126.571 118.234 126.149 118.234C125.727 118.234 125.385 118.576 125.385 118.999C125.385 119.421 125.727 119.764 126.149 119.764Z" fill="#EBCCDC"/>
<path d="M126.149 132.389C126.571 132.389 126.913 132.047 126.913 131.624C126.913 131.201 126.571 130.859 126.149 130.859C125.727 130.859 125.385 131.201 125.385 131.624C125.385 132.047 125.727 132.389 126.149 132.389Z" fill="#EBCCDC"/>
<path d="M115.877 56.6363C116.298 56.6363 116.64 56.2937 116.64 55.871C116.64 55.4483 116.298 55.1057 115.877 55.1057C115.455 55.1057 115.113 55.4483 115.113 55.871C115.113 56.2937 115.455 56.6363 115.877 56.6363Z" fill="#EBCCDC"/>
<path d="M115.877 69.2619C116.298 69.2619 116.64 68.9193 116.64 68.4966C116.64 68.074 116.298 67.7313 115.877 67.7313C115.455 67.7313 115.113 68.074 115.113 68.4966C115.113 68.9193 115.455 69.2619 115.877 69.2619Z" fill="#EBCCDC"/>
<path d="M115.877 81.8872C116.298 81.8872 116.64 81.5445 116.64 81.1219C116.64 80.6992 116.298 80.3566 115.877 80.3566C115.455 80.3566 115.113 80.6992 115.113 81.1219C115.113 81.5445 115.455 81.8872 115.877 81.8872Z" fill="#EBCCDC"/>
<path d="M115.877 94.5128C116.298 94.5128 116.64 94.1701 116.64 93.7475C116.64 93.3248 116.298 92.9822 115.877 92.9822C115.455 92.9822 115.113 93.3248 115.113 93.7475C115.113 94.1701 115.455 94.5128 115.877 94.5128Z" fill="#EBCCDC"/>
<path d="M115.877 107.139C116.298 107.139 116.64 106.796 116.64 106.373C116.64 105.951 116.298 105.608 115.877 105.608C115.455 105.608 115.113 105.951 115.113 106.373C115.113 106.796 115.455 107.139 115.877 107.139Z" fill="#EBCCDC"/>
<path d="M115.877 119.764C116.298 119.764 116.64 119.421 116.64 118.999C116.64 118.576 116.298 118.234 115.877 118.234C115.455 118.234 115.113 118.576 115.113 118.999C115.113 119.421 115.455 119.764 115.877 119.764Z" fill="#EBCCDC"/>
<path d="M115.877 132.389C116.298 132.389 116.64 132.047 116.64 131.624C116.64 131.201 116.298 130.859 115.877 130.859C115.455 130.859 115.113 131.201 115.113 131.624C115.113 132.047 115.455 132.389 115.877 132.389Z" fill="#EBCCDC"/>
<path d="M54.9941 110.21C44.1173 110.21 33.4847 106.979 24.441 100.924C15.3973 94.8685 8.34857 86.2622 4.1862 76.1931C0.0238267 66.1239 -1.06524 55.0441 1.05672 44.3547C3.17868 33.6654 8.41636 23.8466 16.1074 16.14C23.7985 8.43337 33.5975 3.1851 44.2653 1.05886C54.9331 -1.06739 65.9905 0.0238777 76.0394 4.19466C86.0882 8.36544 94.6771 15.4284 100.72 24.4904C106.763 33.5524 109.988 44.2064 109.988 55.1052C109.971 69.7149 104.172 83.7214 93.8623 94.052C83.5525 104.383 69.5743 110.194 54.9941 110.21V110.21ZM54.9941 2.00665C44.5136 2.00685 34.2686 5.12112 25.5545 10.9556C16.8404 16.7901 10.0486 25.0829 6.03804 34.7851C2.02744 44.4874 0.978131 55.1635 3.02281 65.4633C5.06749 75.7631 10.1143 85.2241 17.5251 92.6499C24.9359 100.076 34.3778 105.133 44.6569 107.182C54.9359 109.23 65.5905 108.179 75.2732 104.16C84.9559 100.141 93.2319 93.336 99.0546 84.6043C104.877 75.8726 107.985 65.6068 107.986 55.1052C107.969 41.028 102.381 27.5321 92.4463 17.5783C82.512 7.62448 69.0429 2.02567 54.9941 2.0101V2.00665Z" fill="#7ED6C1"/>
<path d="M54.995 83.2996C49.4301 83.2996 43.9901 81.646 39.363 78.5481C34.7359 75.4501 31.1295 71.0468 28.9998 65.895C26.8702 60.7433 26.313 55.0745 27.3987 49.6054C28.4844 44.1363 31.1642 39.1127 35.0992 35.1697C39.0342 31.2267 44.0477 28.5415 49.5058 27.4536C54.9638 26.3658 60.6212 26.9241 65.7626 29.058C70.904 31.1919 75.2984 34.8056 78.3901 39.4421C81.4818 44.0785 83.132 49.5295 83.132 55.1057C83.1236 62.5806 80.1565 69.7469 74.8816 75.0325C69.6067 80.318 62.4549 83.2911 54.995 83.2996ZM54.995 28.9205C49.8265 28.9205 44.7741 30.4562 40.4766 33.3335C36.1792 36.2108 32.8297 40.3003 30.8518 45.0851C28.8739 49.8698 28.3564 55.1348 29.3647 60.2142C30.373 65.2937 32.8619 69.9594 36.5166 73.6215C40.1713 77.2836 44.8277 79.7775 49.8969 80.7879C54.9661 81.7982 60.2204 81.2797 64.9955 79.2978C69.7706 77.3159 73.8519 73.9596 76.7234 69.6535C79.5949 65.3473 81.1275 60.2847 81.1275 55.1057C81.1191 48.1638 78.3631 41.5086 73.464 36.6001C68.565 31.6917 61.923 28.9307 54.995 28.9229V28.9205Z" fill="#7ED6C1"/>
<path d="M82.5072 67.8212C82.4583 69.1615 80.8437 70.3793 80.7106 71.6864C80.5638 73.0777 81.8824 74.6279 81.6544 75.8776C81.4063 77.242 79.6229 78.1818 79.2609 79.4276C78.8504 80.8331 79.7937 82.7167 79.2609 83.8497C78.6356 85.1965 76.6746 85.395 75.8272 86.2937C74.8354 87.3389 74.4171 89.4911 73.1611 89.7309C71.8944 89.9711 70.7534 88.0395 69.498 87.2712C68.4181 86.6138 66.4772 87.006 65.4889 85.6975C64.6439 84.5748 65.1063 82.226 64.4536 80.717C63.8718 79.3722 61.9607 78.5363 61.5556 76.8929C61.1838 75.3785 62.3991 73.416 62.2431 71.7727C62.0963 70.2254 60.5247 68.6791 60.5869 66.9941C60.649 65.3091 62.3336 63.8829 62.5968 62.3518C62.8757 60.7247 61.811 58.6749 62.2949 57.1963C62.8233 55.5887 64.7902 54.8989 65.4727 53.6027C66.2355 52.1451 65.9522 49.7678 66.8779 48.7118C67.9621 47.4818 69.8683 48.0206 70.9956 47.446C72.3049 46.7748 73.5888 44.9344 74.832 45.2692C76.0669 45.6036 76.3233 47.7808 77.2333 48.8971C78.0108 49.8566 79.9512 50.2027 80.4733 51.5936C80.918 52.7643 79.8372 54.5709 80.1401 56.0035C80.4077 57.2781 82.1158 58.3454 82.2606 59.7255C82.3947 60.9879 80.9631 62.4342 81.0042 63.8324C81.0423 65.1463 82.5591 66.4823 82.5072 67.8212Z" fill="#43200C"/>
<path d="M78.6127 52.1741C79.5879 53.2119 80.7973 54.0002 82.1394 54.4729C83.226 54.7347 92.0544 64.1658 77.2496 63.2025C77.2496 63.2025 77.9884 60.9267 75.5861 59.3015C74.0057 58.2316 72.6839 56.8214 71.7174 55.174C71.7174 55.174 78.004 51.347 78.6127 52.1741Z" fill="#F2693B"/>
<path d="M158.222 142.85L160.782 145.743C160.782 145.743 164.976 152.029 155.052 150.851C153.935 150.718 155.333 147.244 155.727 146.68C156.306 145.847 158.777 144.91 158.777 144.91L158.222 142.85Z" fill="#771C61"/>
<path d="M154.732 143.715L155.7 146.69L158.777 144.914L155.174 131.927L149.275 134.362L154.732 143.715Z" fill="#FA8B59"/>
<path d="M60.9588 148.504C59.648 149.138 58.7404 148.61 58.3833 149.363C57.8323 150.527 60.6897 151.513 70.002 150.291C70.4536 149.6 69.4016 147.306 69.4016 147.306L67.0585 148.277L66.1372 146.556C66.1372 146.556 62.476 147.768 60.9588 148.504Z" fill="#771C61"/>
<path d="M66.1382 146.556L67.059 148.276L69.4016 147.306L76.2074 138.371L71.6532 135.037L66.1382 146.556Z" fill="#FA8B59"/>
<path d="M144.373 104.83C143.164 103.1 135.37 69.2949 117.041 63.7844C114.213 63.1666 97.1272 76.0252 95.2915 77.5288C91.5921 86.1941 88.8572 95.2415 87.1363 104.507C83.7496 111.028 73.1432 132.477 71.6533 135.038C71.6533 135.038 78.3651 140.125 78.5971 139.801C83.7065 132.639 89.0626 126.996 93.946 116.587C94.4294 115.275 94.7321 113.903 94.8457 112.509C105.555 99.2767 110.122 92.8793 112.765 86.2309C112.765 86.2309 124.288 98.0344 132.642 108.236C136.497 118.224 145.127 133.305 146.111 135.483C146.111 135.483 155.287 132.311 155.174 131.928C153.053 124.615 150.038 114.833 144.373 104.83Z" fill="#3A4042"/>
<path d="M82.365 51.393C83.6904 52.3971 87.4876 50.9954 88.7142 50.942C89.9408 50.8886 90.6537 37.4535 89.9193 33.855L85.0599 13.6989C85.1054 13.4469 85.3794 13.0743 85.3725 12.841C86.2043 11.9585 86.196 11.1868 85.9415 9.45378C85.8085 8.54974 86.9891 5.31059 86.7635 5.09635C86.4533 4.80219 86.1343 4.89583 86.0164 5.32334C85.4909 6.24552 85.2336 7.61334 84.691 7.83543C84.3313 7.11916 85.2052 3.67803 85.0046 3.38093C84.9052 3.2754 84.7717 3.2085 84.6278 3.19208C84.4839 3.17566 84.3389 3.21077 84.2183 3.29121C83.9507 3.55791 83.9737 4.28693 83.8988 4.54431C83.6464 5.41599 83.3543 7.30104 83.299 7.46283C83.2863 7.46283 83.2114 7.53049 83.2011 7.52559C83.047 6.84511 83.3675 2.90979 83.0764 2.55386C83.003 2.45933 82.9012 2.39097 82.786 2.35884C82.6709 2.32672 82.5485 2.33254 82.4369 2.37545C82.3253 2.41836 82.2304 2.4961 82.1663 2.59717C82.1021 2.69824 82.0721 2.81729 82.0807 2.93675C82.0318 4.3992 81.8933 7.42165 81.8189 7.62952C81.2626 7.57609 81.1594 5.78369 80.8433 5.12282C80.585 4.58795 80.47 3.67999 79.6691 4.11681C79.4034 4.26389 80.8957 10.2632 80.6188 10.7216C79.9891 10.5745 79.99 10.3784 79.5913 9.78029C79.3799 9.46505 78.5712 8.43207 78.1426 9.14785C77.9415 9.48613 79.3946 11.3393 79.6828 12.2311C79.8609 12.7861 80.288 12.6449 80.8482 12.8307C81.2396 12.9616 81.6115 13.04 81.5655 13.5092L82.5113 35.0635C82.5113 35.0635 81.267 50.5625 82.365 51.393Z" fill="#FA8B59"/>
<path d="M75.8527 91.1443L74.9065 112.701C74.9515 113.168 74.5792 113.248 74.1882 113.379C73.6285 113.565 73.2019 113.424 73.0238 113.977C72.7361 114.87 71.282 116.723 71.484 117.062C71.9126 117.778 72.7214 116.745 72.9323 116.43C73.332 115.834 73.331 115.637 73.9597 115.488C74.2372 115.947 72.7449 121.948 73.0115 122.093C73.8105 122.528 73.9255 121.622 74.1833 121.087C74.4999 120.426 74.6036 118.632 75.1619 118.579C75.2358 118.788 75.3728 121.811 75.4227 123.273C75.4141 123.392 75.4441 123.512 75.5083 123.613C75.5724 123.714 75.6672 123.791 75.7788 123.834C75.8904 123.877 76.0128 123.883 76.128 123.851C76.2431 123.819 76.3449 123.75 76.4183 123.656C76.7085 123.3 76.3885 119.365 76.5426 118.684C76.5548 118.679 76.6297 118.745 76.6405 118.747C76.6953 118.906 76.9874 120.793 77.2403 121.665C77.3152 121.923 77.2917 122.65 77.5593 122.917C77.6791 122.997 77.8235 123.032 77.9667 123.016C78.11 123 78.243 122.934 78.3421 122.829C78.5432 122.53 77.6699 119.091 78.0285 118.373C78.5697 118.595 78.829 119.965 79.3549 120.884C79.4724 121.314 79.7923 121.406 80.1016 121.113C80.3281 120.899 79.1465 117.66 79.2801 116.756C79.534 115.023 79.5438 114.25 78.7115 113.367C78.7174 113.136 78.4434 112.764 78.3984 112.511L83.2583 92.3528C85.3373 82.1819 75.8527 91.1443 75.8527 91.1443Z" fill="#FA8B59"/>
<path d="M83.2613 92.3527C86.3588 89.2504 86.7106 75.9854 86.7106 75.9854C86.7106 75.9854 77.8813 62.0581 76.6806 63.299C73.2855 66.8063 75.8527 91.1457 75.8527 91.1457L83.2613 92.3527Z" fill="#FA8B59"/>
<path d="M117.041 62.5666C108.234 52.3618 99.4757 53.662 93.4518 52.8148C93.4518 52.8148 80.7606 46.3193 81.8189 54.3709L77.3499 62.594L76.6815 63.2995L86.7116 75.9859L95.2924 77.5298C95.2924 77.5298 105.772 73.0248 108.943 71.3814C111.599 70.0077 118.381 64.1173 117.041 62.5666Z" fill="#E695C7"/>
<path d="M70.848 53.507C69.2069 52.9555 70.4756 54.9254 70.9894 55.3622C71.1772 55.5235 71.5735 55.8294 71.8573 55.7686L70.848 53.507Z" fill="#FA8B59"/>
<path d="M77.7358 50.6517C78.5084 49.0995 78.9982 51.391 78.9429 52.0646C78.9223 52.3098 78.8347 52.8647 78.5911 53.0226L77.7358 50.6517Z" fill="#FA8B59"/>
<path d="M70.8396 54.1654C70.2647 52.7721 69.274 50.5919 69.4927 49.4207C69.7456 48.0602 71.0299 47.4141 72.1695 46.941C73.309 46.4679 74.674 46.0168 75.814 46.7998C76.7926 47.4744 77.7251 49.682 78.2056 51.1141C78.5206 51.9136 78.6504 52.7745 78.585 53.6316C78.5197 54.4888 78.261 55.3199 77.8284 56.0622C77.525 56.6227 77.0387 57.0618 76.4508 57.3059C75.863 57.55 75.2093 57.5843 74.5992 57.4031C72.7918 56.8619 71.5726 55.9421 70.8396 54.1654Z" fill="#FA8B59"/>
<path d="M70.848 53.5075C70.5285 53.4825 70.2785 53.3604 70.0544 53.5918C68.1506 51.0121 68.5866 48.9299 68.9384 48.0813C69.1309 47.4557 69.4589 46.8803 69.8989 46.3963C70.339 45.9123 70.8801 45.5315 71.4839 45.2812C72.0877 45.0309 72.7391 44.9171 73.3918 44.9481C74.0445 44.9791 74.6823 45.154 75.2597 45.4604C76.3337 45.906 77.9996 47.5298 78.3319 50.1389C78.2029 50.1791 78.0835 50.2453 77.9812 50.3336C77.8788 50.4219 77.7957 50.5304 77.7369 50.6522C77.7809 49.8737 74.8771 46.4002 72.604 48.5416C71.5339 47.893 69.9189 52.3299 70.848 53.5075Z" fill="#43200C"/>
</g>
<g clip-path="url(#clip1_405_94)">
<path d="M177.838 61.0772H176V56.734H177.838V56.4156C177.729 55.6767 177.795 54.9227 178.033 54.2141C178.27 53.5055 178.672 52.862 179.206 52.3354C179.739 51.8088 180.39 51.4136 181.105 51.1817C181.82 50.9498 182.58 50.8876 183.324 51C184.536 50.9623 185.746 51.1088 186.913 51.4343V55.3151C186.244 55.0973 185.545 54.9898 184.841 54.9967C183.82 54.9967 183.265 55.4591 183.265 56.4729V56.8499H186.913V61.0772H183.382V72.3415H177.838V61.0772ZM188.663 51.2037H194.411V55.2578H188.663V51.2037ZM188.786 56.6767H194.301V72.3427H188.786V56.6767Z" fill="#771C61"/>
<path d="M197.417 56.6754H202.961V58.8714C203.486 58.1024 204.19 57.4696 205.012 57.0262C205.834 56.5827 206.752 56.3415 207.688 56.3229C211.043 56.3229 213.056 58.5189 213.056 62.0849V72.3329H207.542V63.849C207.542 62.1118 206.638 61.1846 205.294 61.1846C203.951 61.1846 202.959 62.1105 202.959 63.849V72.3329H197.415L197.417 56.6754Z" fill="#771C61"/>
<path d="M215.333 64.5798V64.5286C215.333 59.4314 218.572 56.3338 222.307 56.3338C223.231 56.3114 224.148 56.504 224.984 56.8961C225.82 57.2882 226.552 57.869 227.121 58.5921V51.2086H232.665V72.3366H227.121V70.2516C226.581 71.0106 225.864 71.6284 225.03 72.0521C224.197 72.4758 223.273 72.6927 222.337 72.6843C218.572 72.6879 215.333 69.5904 215.333 64.5798ZM227.238 64.5225V64.4639C227.285 64.0135 227.237 63.5582 227.096 63.1275C226.955 62.6967 226.724 62.3003 226.419 61.9637C226.114 61.6271 225.741 61.358 225.324 61.1738C224.907 60.9896 224.456 60.8945 223.999 60.8945C223.543 60.8945 223.092 60.9896 222.675 61.1738C222.258 61.358 221.885 61.6271 221.579 61.9637C221.274 62.3003 221.043 62.6967 220.902 63.1275C220.761 63.5582 220.713 64.0135 220.761 64.4639V64.5286C220.713 64.979 220.761 65.4343 220.902 65.865C221.043 66.2957 221.274 66.6922 221.579 67.0288C221.885 67.3653 222.258 67.6344 222.675 67.8186C223.092 68.0028 223.543 68.098 223.999 68.098C224.456 68.098 224.907 68.0028 225.324 67.8186C225.741 67.6344 226.114 67.3653 226.419 67.0288C226.724 66.6922 226.955 66.2957 227.096 65.865C227.237 65.4343 227.285 64.979 227.238 64.5286V64.5225Z" fill="#771C61"/>
<path d="M254.492 56.6754H260.181L254.403 71.9645C253.032 75.6416 251.544 77.0616 248.393 77.0616C246.617 77.0704 244.873 76.6002 243.345 75.7013L245.037 71.8498C245.766 72.3158 246.596 72.6035 247.459 72.6891C247.715 72.7072 247.971 72.6578 248.201 72.5459C248.432 72.4341 248.629 72.2638 248.772 72.0523L242.587 56.6803H248.365L251.517 66.1207L254.492 56.6754Z" fill="#771C61"/>
<path d="M260.503 64.5798V64.5225C260.642 62.3284 261.616 60.2686 263.228 58.7608C264.84 57.253 266.969 56.41 269.184 56.4025C271.4 56.3951 273.535 57.2238 275.157 58.7207C276.779 60.2177 277.767 62.2708 277.921 64.4639V64.5225C277.902 65.635 277.659 66.7326 277.206 67.7505C276.753 68.7684 276.1 69.6862 275.284 70.4498C274.469 71.2133 273.507 71.8073 272.457 72.1967C271.407 72.5861 270.289 72.7631 269.168 72.7172C268.057 72.7631 266.948 72.5875 265.906 72.2006C264.865 71.8138 263.912 71.2236 263.104 70.4649C262.296 69.7063 261.649 68.7946 261.203 67.7838C260.756 66.7729 260.518 65.6835 260.503 64.5798V64.5798ZM272.55 64.5798V64.5225C272.568 64.0668 272.495 63.6122 272.334 63.1852C272.173 62.7581 271.927 62.3673 271.612 62.0355C271.297 61.7038 270.918 61.4377 270.498 61.2531C270.078 61.0684 269.625 60.9688 269.166 60.9601C268.714 60.9621 268.266 61.056 267.852 61.2358C267.437 61.4156 267.064 61.6777 266.755 62.0058C266.447 62.3339 266.209 62.7213 266.056 63.144C265.904 63.5667 265.84 64.0158 265.869 64.4639V64.5225C265.85 64.9747 265.922 65.4262 266.081 65.8504C266.24 66.2746 266.483 66.6629 266.796 66.9926C267.108 67.3222 267.484 67.5865 267.901 67.7699C268.318 67.9533 268.768 68.0521 269.224 68.0604C269.676 68.0611 270.124 67.9701 270.54 67.7932C270.956 67.6162 271.332 67.3569 271.643 67.0312C271.955 66.7054 272.197 66.32 272.353 65.8986C272.51 65.4771 272.578 65.0284 272.554 64.5798H272.55Z" fill="#771C61"/>
<path d="M280.144 66.8978V56.6754H285.687V65.1593C285.687 66.8673 286.593 67.7945 287.934 67.7945C288.269 67.7976 288.602 67.729 288.908 67.5932C289.215 67.4574 289.488 67.2576 289.71 67.0076C289.931 66.7575 290.096 66.463 290.193 66.144C290.289 65.8251 290.315 65.4892 290.27 65.1593V56.6754H295.784V72.3414H290.27V70.1686C289.743 70.9335 289.038 71.5616 288.216 72C287.393 72.4384 286.476 72.6743 285.543 72.6879C282.184 72.6879 280.144 70.459 280.144 66.8978Z" fill="#771C61"/>
<path d="M298.758 56.6791H304.302V59.8352C304.616 58.7863 305.282 57.8755 306.189 57.254C307.097 56.6326 308.191 56.338 309.291 56.4192V62.2106H308.825C305.936 62.2106 304.302 63.8612 304.302 67.4566V72.35H298.758V56.6791Z" fill="#771C61"/>
<path d="M179.464 92.7264H176.42V85.5346H179.464V85.0124C179.464 82.0405 180.14 79.8347 181.687 78.3024C183.285 76.7164 185.407 76.049 188.548 76.049C190.553 75.9866 192.557 76.2289 194.489 76.7676V83.1824C193.382 82.8221 192.224 82.6441 191.059 82.6554C189.369 82.6554 188.45 83.4227 188.45 85.0954V85.7188H194.489V92.7191H188.643V111.369H179.465L179.464 92.7264ZM197.386 76.3784H206.904V83.0884H197.386V76.3784ZM197.581 85.4406H206.711V111.378H197.581V85.4406Z" fill="#771C61"/>
<path d="M213.517 103.322V92.7264H210.426V85.4393H213.517V78.8708H222.649V85.4393H228.736V92.7264H222.649V101.548C222.649 103.37 223.47 104.137 225.16 104.137C226.37 104.113 227.56 103.818 228.639 103.275V110.374C226.679 111.414 224.485 111.942 222.263 111.907C216.754 111.904 213.517 109.506 213.517 103.322Z" fill="#771C61"/>
<path d="M232.695 85.4381H241.874V89.0823C242.743 87.8093 243.908 86.7619 245.27 86.0279C246.631 85.2938 248.15 84.8945 249.7 84.8635C255.255 84.8635 258.589 88.5064 258.589 94.4039V111.377H249.458V97.3295C249.458 94.4527 247.959 92.918 245.738 92.918C243.516 92.918 241.873 94.4515 241.873 97.3295V111.377H232.693L232.695 85.4381Z" fill="#771C61"/>
<path d="M262.305 98.5275V98.4311C262.305 90.8549 267.763 84.8635 275.493 84.8635C284.478 84.8635 288.633 91.432 288.633 99.0546C288.633 99.6304 288.633 100.301 288.585 100.924H271.094C271.355 102.194 272.072 103.328 273.112 104.113C274.152 104.899 275.445 105.282 276.748 105.194C277.847 105.184 278.931 104.943 279.93 104.489C280.929 104.035 281.821 103.377 282.546 102.557L287.618 106.728C286.292 108.437 284.573 109.807 282.606 110.724C280.639 111.641 278.48 112.08 276.308 112.002C268.101 112 262.305 106.534 262.305 98.5275ZM280.082 96.2742C279.744 93.3974 278.005 91.576 275.493 91.576C273.078 91.576 271.437 93.3974 270.952 96.2742H280.082Z" fill="#771C61"/>
<path d="M290.659 108.069L294.089 102.604C296.722 104.419 299.823 105.45 303.027 105.576C304.625 105.576 305.394 105.096 305.394 104.185V104.088C305.394 103.034 303.896 102.601 301.143 101.835C295.974 100.493 291.866 98.7667 291.866 93.589V93.4926C291.866 87.9795 296.312 84.9112 302.35 84.9112C306.154 84.9037 309.885 85.9498 313.122 87.9319L309.983 93.6854C307.639 92.2718 304.989 91.4352 302.253 91.2454C300.851 91.2454 300.127 91.7724 300.127 92.5398V92.6362C300.127 93.6427 301.673 94.1222 304.378 94.9371C309.548 96.3755 313.655 98.1494 313.655 103.184V103.281C313.655 108.985 309.352 111.959 302.978 111.959C298.561 111.989 294.247 110.627 290.659 108.069V108.069Z" fill="#771C61"/>
<path d="M315.005 108.069L318.433 102.604C321.067 104.419 324.168 105.45 327.371 105.577C328.97 105.577 329.738 105.097 329.738 104.186V104.09C329.738 103.036 328.241 102.602 325.487 101.836C320.318 100.494 316.212 98.7679 316.212 93.5903V93.4939C316.212 87.9807 320.656 84.9124 326.694 84.9124C330.498 84.9048 334.229 85.9509 337.467 87.9331L334.328 93.6866C331.984 92.2732 329.334 91.4366 326.598 91.2466C325.198 91.2466 324.471 91.7737 324.471 92.5411V92.6374C324.471 93.6439 326.018 94.1234 328.724 94.9384C333.887 96.3767 337.999 98.1506 337.999 103.186V103.282C337.999 108.987 333.696 111.96 327.322 111.96C322.905 111.99 318.592 110.627 315.005 108.069V108.069Z" fill="#771C61"/>
</g>
<defs>
<clipPath id="clip0_405_94">
<rect width="168" height="151" fill="white"/>
</clipPath>
<clipPath id="clip1_405_94">
<rect width="162" height="61" fill="white" transform="translate(176 51)"/>
</clipPath>
</defs>
</svg>
