<svg width="250" height="90" viewBox="0 0 250 90" fill="none" xmlns="http://www.w3.org/2000/svg">
<path fill-rule="evenodd" clip-rule="evenodd" d="M39.8955 6.06806H208.796C227.938 6.06806 243.456 21.5858 243.456 40.728C243.456 59.8701 227.938 75.3879 208.796 75.3879H39.8955C20.7534 75.3879 5.2356 59.8701 5.2356 40.728C5.2356 21.5858 20.7534 6.06806 39.8955 6.06806ZM0 40.728C0 18.6943 17.8618 0.832458 39.8955 0.832458H208.796C230.829 0.832458 248.691 18.6943 248.691 40.728C248.691 52.17 243.874 62.4871 236.158 69.7619L248.85 82.454C250.383 83.9875 250.383 86.4737 248.85 88.0072C247.316 89.5407 244.83 89.5407 243.297 88.0072L229.888 74.5983C223.769 78.417 216.54 80.6235 208.796 80.6235H39.8955C17.8618 80.6235 0 62.7617 0 40.728Z" fill="url(#paint0_linear_102_14)"/>
<path d="M50.3665 54.6075C48.3386 54.6075 46.4572 54.2777 44.7225 53.618C43.0122 52.9339 41.5096 51.981 40.2147 50.7593C38.9442 49.5377 37.9546 48.1084 37.2461 46.4714C36.5375 44.8344 36.1832 43.0508 36.1832 41.1206C36.1832 39.166 36.5497 37.3702 37.2827 35.7332C38.0401 34.0962 39.0785 32.6791 40.3979 31.4819C41.7417 30.2602 43.2932 29.3196 45.0524 28.6599C46.8115 27.9757 48.6928 27.6337 50.6963 27.6337C53.1152 27.6337 55.2775 28.049 57.1833 28.8798C59.1134 29.7105 60.6771 30.8344 61.8744 32.2515L56.9267 37.1991C56.0227 36.1485 55.082 35.3667 54.1047 34.8536C53.1274 34.3405 51.9546 34.084 50.5864 34.084C49.2915 34.084 48.1187 34.3771 47.0681 34.9635C46.0175 35.5255 45.1745 36.3318 44.5393 37.3824C43.9285 38.433 43.623 39.6668 43.623 41.084C43.623 42.5011 43.904 43.7471 44.466 44.8222C45.0524 45.8728 45.8586 46.6913 46.8848 47.2777C47.911 47.8641 49.1082 48.1573 50.4764 48.1573C51.7958 48.1573 52.9075 47.9007 53.8115 47.3876C54.7155 46.8745 55.3997 46.1415 55.8639 45.1887C56.3525 44.2358 56.5969 43.1119 56.5969 41.8169L61.6178 45.0054L49.4869 44.6389V38.7751H63.9634V39.8745C63.9634 43.0019 63.3892 45.6651 62.2408 47.8641C61.1169 50.063 59.5288 51.7367 57.4764 52.885C55.4485 54.0333 53.0785 54.6075 50.3665 54.6075ZM66.7075 54.1677V28.0735H74.0373V54.1677H66.7075ZM78.3751 54.1677V28.0735H85.7049V54.1677H78.3751ZM84.3123 44.8955V38.8117H97.1395V44.8955H84.3123ZM84.3123 34.1573V28.0735H97.6892V34.1573H84.3123ZM112.832 54.5342C111.903 54.5342 111.012 54.4121 110.157 54.1677C109.301 53.899 108.52 53.5325 107.811 53.0682C107.127 52.604 106.528 52.0543 106.015 51.419L107.664 49.7332C108.349 50.5639 109.118 51.1869 109.973 51.6023C110.853 51.9932 111.83 52.1887 112.905 52.1887C114.054 52.1887 114.945 51.9688 115.581 51.529C116.24 51.0892 116.57 50.4784 116.57 49.6965C116.57 48.9635 116.338 48.3894 115.874 47.974C115.41 47.5586 114.811 47.2288 114.078 46.9845C113.369 46.7401 112.612 46.508 111.806 46.2881C110.999 46.0438 110.23 45.7506 109.497 45.4086C108.764 45.0421 108.165 44.5412 107.701 43.9059C107.261 43.2707 107.041 42.44 107.041 41.4138C107.041 40.4365 107.273 39.5936 107.738 38.885C108.226 38.152 108.91 37.5901 109.79 37.1991C110.694 36.7838 111.757 36.5761 112.979 36.5761C114.273 36.5761 115.446 36.8082 116.497 37.2724C117.547 37.7367 118.39 38.4208 119.026 39.3248L117.376 40.974C116.863 40.3143 116.216 39.8134 115.434 39.4714C114.677 39.1049 113.821 38.9216 112.869 38.9216C111.769 38.9216 110.926 39.1415 110.34 39.5813C109.778 39.9967 109.497 40.5464 109.497 41.2305C109.497 41.8902 109.729 42.4155 110.193 42.8065C110.657 43.173 111.244 43.4784 111.952 43.7227C112.685 43.9426 113.455 44.1747 114.261 44.419C115.068 44.6389 115.837 44.9443 116.57 45.3353C117.303 45.7018 117.89 46.2148 118.329 46.8745C118.794 47.5098 119.026 48.3771 119.026 49.4766C119.026 51.0159 118.464 52.2497 117.34 53.1782C116.24 54.0822 114.738 54.5342 112.832 54.5342ZM131.04 54.5342C129.306 54.5342 127.754 54.1433 126.386 53.3614C125.018 52.5796 123.93 51.5045 123.124 50.1363C122.342 48.7681 121.951 47.2288 121.951 45.5185C121.951 43.8326 122.342 42.3178 123.124 40.974C123.906 39.6058 124.969 38.5307 126.313 37.7489C127.656 36.967 129.159 36.5761 130.82 36.5761C132.384 36.5761 133.765 36.9304 134.962 37.6389C136.183 38.3475 137.136 39.337 137.82 40.6075C138.529 41.8536 138.883 43.2951 138.883 44.9321C138.883 45.1276 138.871 45.3597 138.847 45.6285C138.822 45.8728 138.773 46.166 138.7 46.508H123.784V44.3091H137.307L136.391 45.1154C136.416 43.8449 136.196 42.7576 135.731 41.8536C135.292 40.9251 134.644 40.2166 133.789 39.7279C132.958 39.2148 131.944 38.9583 130.747 38.9583C129.501 38.9583 128.414 39.2271 127.485 39.7646C126.557 40.3021 125.824 41.0595 125.286 42.0368C124.773 42.9897 124.517 44.1258 124.517 45.4452C124.517 46.7646 124.786 47.9251 125.323 48.9269C125.885 49.9286 126.655 50.7105 127.632 51.2724C128.634 51.8344 129.782 52.1154 131.077 52.1154C132.128 52.1154 133.093 51.9321 133.972 51.5656C134.852 51.1747 135.597 50.6005 136.208 49.8431L137.857 51.529C137.051 52.4819 136.049 53.2271 134.852 53.7646C133.679 54.2777 132.409 54.5342 131.04 54.5342ZM150.284 54.5342C148.647 54.5342 147.181 54.1433 145.886 53.3614C144.591 52.5552 143.565 51.4801 142.808 50.1363C142.075 48.7925 141.708 47.2777 141.708 45.5918C141.708 43.8815 142.075 42.3545 142.808 41.0107C143.565 39.6424 144.591 38.5674 145.886 37.7855C147.181 36.9792 148.635 36.5761 150.248 36.5761C151.567 36.5761 152.74 36.8449 153.766 37.3824C154.817 37.8955 155.66 38.6285 156.295 39.5813C156.954 40.5098 157.358 41.597 157.504 42.8431V48.2306C157.358 49.4766 156.954 50.5761 156.295 51.529C155.66 52.4819 154.817 53.2271 153.766 53.7646C152.74 54.2777 151.579 54.5342 150.284 54.5342ZM150.687 52.0787C152.471 52.0787 153.9 51.4801 154.975 50.2829C156.075 49.0857 156.625 47.5098 156.625 45.5552C156.625 44.2602 156.368 43.1241 155.855 42.1468C155.366 41.145 154.67 40.3754 153.766 39.8379C152.886 39.2759 151.848 38.9949 150.651 38.9949C149.429 38.9949 148.342 39.2759 147.389 39.8379C146.461 40.3998 145.715 41.1817 145.153 42.1834C144.616 43.1607 144.347 44.2847 144.347 45.5552C144.347 46.8257 144.616 47.9496 145.153 48.9269C145.715 49.9042 146.473 50.6738 147.426 51.2358C148.379 51.7977 149.466 52.0787 150.687 52.0787ZM156.478 54.1677V49.5499L156.991 45.2986L156.478 41.1573V36.9426H159.043V54.1677H156.478ZM164.246 54.1677V36.9426H166.812V54.1677H164.246ZM166.812 44.1258L165.749 43.6494C165.749 41.4749 166.274 39.7524 167.325 38.4819C168.4 37.2114 169.866 36.5761 171.723 36.5761C172.578 36.5761 173.36 36.7349 174.068 37.0525C174.777 37.3457 175.436 37.8222 176.047 38.4819L174.361 40.2777C173.946 39.8134 173.482 39.4836 172.969 39.2881C172.48 39.0927 171.918 38.9949 171.283 38.9949C169.964 38.9949 168.888 39.4347 168.058 40.3143C167.227 41.1695 166.812 42.44 166.812 44.1258ZM186.012 54.5342C184.326 54.5342 182.799 54.1433 181.43 53.3614C180.087 52.5552 179.012 51.4679 178.205 50.0997C177.423 48.7314 177.032 47.2044 177.032 45.5185C177.032 43.8326 177.423 42.3178 178.205 40.974C179.012 39.6058 180.087 38.5307 181.43 37.7489C182.799 36.967 184.326 36.5761 186.012 36.5761C187.306 36.5761 188.516 36.8204 189.64 37.3091C190.764 37.7977 191.717 38.4819 192.498 39.3614L190.813 41.084C190.226 40.4243 189.518 39.9234 188.687 39.5813C187.856 39.2148 186.964 39.0316 186.012 39.0316C184.79 39.0316 183.703 39.3126 182.75 39.8745C181.797 40.4365 181.052 41.2061 180.514 42.1834C179.977 43.1363 179.708 44.248 179.708 45.5185C179.708 46.7646 179.977 47.8885 180.514 48.8902C181.052 49.8675 181.797 50.6372 182.75 51.1991C183.703 51.7611 184.79 52.0421 186.012 52.0421C186.989 52.0421 187.893 51.871 188.724 51.529C189.554 51.1625 190.263 50.6494 190.849 49.9897L192.572 51.7122C191.765 52.6162 190.788 53.3126 189.64 53.8012C188.516 54.2899 187.306 54.5342 186.012 54.5342ZM208.705 54.1677V44.0525C208.705 42.5377 208.253 41.3161 207.349 40.3876C206.47 39.4347 205.297 38.9583 203.831 38.9583C202.829 38.9583 201.949 39.1782 201.192 39.618C200.435 40.0578 199.836 40.6564 199.396 41.4138C198.956 42.1712 198.737 43.0386 198.737 44.0159L197.564 43.3562C197.564 42.0613 197.869 40.9007 198.48 39.8745C199.091 38.8484 199.909 38.0421 200.936 37.4557C201.986 36.8693 203.183 36.5761 204.527 36.5761C205.847 36.5761 207.019 36.8815 208.045 37.4923C209.072 38.0787 209.866 38.8972 210.428 39.9478C211.014 40.9984 211.307 42.2201 211.307 43.6127V54.1677H208.705ZM196.171 54.1677V28.2201H198.737V54.1677H196.171Z" fill="#28292D"/>
<defs>
<linearGradient id="paint0_linear_102_14" x1="1.88215e-06" y1="43.3457" x2="252.618" y2="43.3458" gradientUnits="userSpaceOnUse">
<stop stop-color="#5AEA57"/>
<stop offset="0.486565" stop-color="#5CD4FA"/>
<stop offset="1" stop-color="#D662FF"/>
</linearGradient>
</defs>
</svg>
