<svg id="Layer_2" data-name="Layer 2" xmlns="http://www.w3.org/2000/svg" viewBox="0 0 814 223.82" width="814" height="223.82">
  <defs>
    <style>
      .cls-1 {
        fill: #f4e6ec;
      }

      .cls-2 {
        fill: #380921;
      }
    </style>
  </defs>
  <g id="Layer_1-2" data-name="Layer 1">
    <g>
      <g>
        <path class="cls-2" d="m196.26,28.16c-.12.1-.23.2-.33.31-.88.9-1.36,2.11-1.33,3.36.24,11.31.35,21.94.35,34.45,0,13.99,0,26.07-.34,37.05-.04,1.26.43,2.49,1.31,3.39.88.91,2.09,1.42,3.35,1.42h27.41c1.26,0,2.47-.51,3.35-1.42.15-.15.26-.32.39-.49.23-.16.45-.34.65-.55.15-.15.26-.32.39-.49.23-.16.45-.34.65-.55.15-.15.26-.32.39-.49.23-.16.45-.34.65-.55.15-.15.26-.32.38-.49.23-.16.45-.34.65-.55.15-.15.26-.32.39-.49.23-.16.45-.34.65-.55.15-.15.26-.32.39-.49.23-.16.45-.34.65-.55.15-.15.26-.32.39-.49.23-.16.45-.34.65-.55.15-.15.26-.32.39-.49.23-.16.45-.34.65-.55.15-.15.26-.32.39-.49.23-.16.45-.34.65-.55.28-.28.5-.61.69-.95,6.82,8.92,18.13,13.2,34.29,13.2s27.31-3.3,33.92-10.36c.36-.34.7-.68,1.04-1.04.36-.34.7-.68,1.04-1.04.36-.34.7-.68,1.04-1.04.36-.34.7-.68,1.04-1.04.36-.34.7-.68,1.04-1.04.36-.34.7-.68,1.04-1.04.36-.34.7-.68,1.04-1.04.36-.34.7-.68,1.04-1.04.53-.5,1.02-1.02,1.5-1.56,6.44,13.3,19.51,20.21,38.73,20.21,14.5,0,25.65-4.08,33.08-11.83.35-.34.7-.68,1.04-1.04.35-.34.7-.68,1.04-1.04.35-.34.7-.68,1.04-1.04.35-.34.7-.68,1.04-1.04.35-.34.7-.68,1.04-1.04.35-.34.7-.68,1.04-1.04.35-.34.7-.68,1.04-1.04.35-.34.7-.68,1.04-1.04,1.18-1.12,2.27-2.33,3.28-3.63-.06,6.65-.15,11.94-.28,17.48-.03,1.26.45,2.47,1.33,3.37.88.9,2.08,1.4,3.34,1.4h27.41c1.25,0,2.45-.5,3.33-1.39.16-.16.29-.35.43-.53.21-.15.42-.32.61-.51.16-.16.29-.35.43-.53.21-.15.42-.32.61-.51.16-.16.29-.35.43-.53.21-.15.42-.32.61-.51.16-.16.29-.35.43-.53.21-.15.42-.32.61-.51.16-.16.29-.35.43-.53.21-.15.42-.32.61-.51.16-.16.29-.35.43-.53.21-.15.42-.32.61-.51.16-.16.29-.35.43-.53.21-.15.42-.32.61-.51.16-.16.29-.35.43-.53.21-.15.42-.32.61-.51.16-.16.29-.35.43-.53.21-.15.42-.32.61-.51.88-.89,1.36-2.1,1.34-3.35-.11-7.04-.23-14.32-.23-36.67,1.46.35,2.06,1.54,2.06,5.66,0,16.81-.12,30.38-.35,40.31-.03,1.26.45,2.47,1.33,3.37.88.9,2.08,1.41,3.34,1.41h27.64c1.27,0,2.5-.52,3.38-1.44.13-.14.24-.3.35-.45.24-.17.48-.37.69-.59.13-.14.24-.3.35-.45.24-.17.48-.37.69-.59.13-.14.24-.3.35-.45.25-.17.48-.37.69-.59.13-.14.24-.3.35-.45.24-.17.48-.37.69-.59.1-.11.18-.23.27-.35-.01.37-.02.76-.03,1.13-.04,1.26.43,2.49,1.31,3.39.88.91,2.09,1.42,3.35,1.42h27.41c1.26,0,2.47-.51,3.35-1.42.15-.15.26-.32.39-.49.23-.16.45-.34.65-.55.15-.15.26-.32.39-.49.23-.16.45-.34.65-.55.15-.15.26-.32.39-.49.23-.16.45-.34.65-.55.15-.15.26-.32.39-.49.23-.16.45-.34.65-.55.15-.15.26-.32.39-.49.23-.16.45-.34.65-.55.15-.15.26-.32.39-.49.23-.16.45-.34.65-.55.15-.15.26-.32.38-.49.23-.16.45-.34.65-.55.15-.15.26-.32.39-.49.23-.16.45-.34.65-.55.15-.15.26-.32.39-.49.23-.16.45-.34.65-.55.28-.28.5-.61.69-.95,6.82,8.92,18.13,13.2,34.29,13.2s27.31-3.3,33.92-10.36c.36-.34.7-.68,1.04-1.04.36-.34.7-.68,1.04-1.04.36-.34.7-.68,1.04-1.04.36-.34.7-.68,1.04-1.04.36-.34.7-.68,1.04-1.04.36-.34.7-.68,1.04-1.04.36-.34.7-.68,1.04-1.04.36-.34.7-.68,1.04-1.04,5.78-5.46,8.52-13.42,8.52-24.14,0-.59-.03-1.16-.06-1.74-.02-.43-.05-.88-.05-1.37,0-1.28-.53-2.51-1.46-3.39-.87-.82-2.02-1.27-3.2-1.27-.09,0-.18,0-.27,0-.24.01-.51.02-.75.04.11-.12.22-.24.31-.38.4-.29.75-.64,1.04-1.04.4-.29.75-.64,1.04-1.04.4-.29.75-.64,1.04-1.04,1.05-.77,1.78-1.96,1.9-3.36.13-1.58.13-2.96.13-4.19,0-28.06-20.64-31.85-40.83-31.85-14.99,0-25.83,3.53-32.8,10.83-.36.34-.7.68-1.04,1.04-.36.34-.7.68-1.04,1.04-.36.34-.7.68-1.04,1.04-.36.34-.7.68-1.04,1.04-.36.34-.7.68-1.04,1.04-.36.34-.7.68-1.04,1.04-.36.34-.7.68-1.04,1.04-.36.34-.7.68-1.04,1.04-.86.81-1.67,1.68-2.42,2.6.05-5.33.13-10.32.29-15.42.04-1.26-.44-2.49-1.31-3.39-.11-.11-.22-.21-.33-.31.14-.15.29-.29.42-.44,1.92-1.68,3.19-4.04,3.19-7.4,0-11-12.65-11-20.22-11-5.75,0-14.41,0-18.36,4.68-.37.32-.72.66-1.04,1.04-.37.32-.72.66-1.04,1.04-.37.32-.72.66-1.04,1.04-.37.32-.72.66-1.04,1.04-.37.32-.72.66-1.04,1.04-.37.32-.72.66-1.04,1.04-.37.32-.72.66-1.04,1.04-.37.32-.72.66-1.04,1.04-1.91,1.62-3.13,3.97-3.13,7.36,0,1.22.18,2.31.47,3.28-4.71-4.57-11.6-6.92-20.55-6.92-7.98,0-14.51,1.79-19.53,5.34-.08-1.08-.55-2.11-1.31-2.89-.88-.9-2.08-1.41-3.34-1.41h-27.41c-1.26,0-2.46.51-3.34,1.41-.15.16-.28.33-.41.51-.22.16-.44.33-.63.53-.15.16-.28.33-.41.51-.22.16-.44.33-.63.53-.15.16-.28.33-.41.51-.22.16-.44.33-.63.53-.15.16-.28.33-.41.51-.22.16-.44.33-.63.53-.15.16-.28.33-.41.51-.22.16-.44.33-.63.53-.15.16-.28.33-.41.51-.22.16-.44.33-.63.53-.15.16-.28.33-.41.51-.22.16-.44.33-.63.53-.15.16-.28.33-.41.51-.22.16-.44.33-.63.53-.15.16-.28.33-.41.51-.22.16-.44.33-.63.53-.34.35-.6.76-.82,1.18-8.71-10.59-22.9-13.42-35.56-13.42-15.31,0-26.6,3.87-33.81,11.54-.35.34-.7.68-1.04,1.04-.35.34-.7.68-1.04,1.04-.35.34-.7.68-1.04,1.04-.35.34-.7.68-1.04,1.04-.35.34-.7.68-1.04,1.04-.35.34-.7.68-1.04,1.04-.35.34-.7.68-1.04,1.04-.35.34-.7.68-1.04,1.04-.23.22-.45.44-.67.67-4.96-17.8-22.35-20.51-39.43-20.51-14.99,0-25.83,3.53-32.8,10.83-.36.34-.7.68-1.04,1.04-.36.34-.7.68-1.04,1.04-.36.34-.7.68-1.04,1.04-.36.34-.7.68-1.04,1.04-.36.34-.7.68-1.04,1.04-.36.34-.7.68-1.04,1.04-.36.34-.7.68-1.04,1.04-.36.34-.7.68-1.04,1.04-.86.81-1.67,1.68-2.42,2.6.05-5.33.13-10.32.29-15.42.04-1.26-.44-2.49-1.31-3.39-.11-.11-.22-.21-.33-.31.14-.15.29-.29.42-.44,1.92-1.68,3.19-4.04,3.19-7.4,0-11-12.65-11-20.22-11-5.75,0-14.41,0-18.36,4.68-.37.32-.72.66-1.04,1.04-.37.32-.72.66-1.04,1.04-.37.32-.72.66-1.04,1.04-.37.32-.72.66-1.04,1.04-.37.32-.72.66-1.04,1.04-.37.32-.72.66-1.04,1.04-.37.32-.72.66-1.04,1.04-.37.32-.72.66-1.04,1.04-1.91,1.62-3.13,3.97-3.13,7.36,0,3.65,1.45,6.13,3.62,7.83Z"/>
        <path class="cls-2" d="m814,187.36c0-9-2.63-15.01-7.42-19.16.03-.03.04-.07.07-.11.09-.06.18-.11.26-.18.3-.25.55-.54.78-.85.09-.06.18-.11.26-.18.3-.25.55-.54.78-.85.09-.06.18-.11.26-.18.3-.25.55-.54.78-.85.09-.06.18-.11.26-.18.3-.25.55-.54.78-.85.09-.06.18-.11.26-.18.97-.81,1.57-1.97,1.66-3.23l.03-.4c.11-1.43.21-2.77.21-4.1,0-22.38-19.71-25.4-38.99-25.4-12.44,0-26.12,1.38-33.69,9.5-.36.33-.7.68-1.04,1.04-.36.33-.7.68-1.04,1.04-.36.33-.7.68-1.04,1.04-.36.33-.7.68-1.04,1.04-.36.33-.7.68-1.04,1.04-.36.33-.7.68-1.04,1.04-.36.33-.7.68-1.04,1.04-.22.2-.43.4-.63.61-4.88-12.05-16.44-17.6-35.79-17.6-15.03,0-25.92,3.57-32.95,10.95-.36.34-.7.68-1.04,1.04-.36.34-.7.68-1.04,1.04-.35.34-.7.68-1.04,1.04-.36.34-.7.68-1.04,1.04-.13.12-.27.24-.4.37.87-2.96,1.66-5.65,2.36-7.95.43-1.41.16-2.95-.72-4.13-.88-1.19-2.27-1.88-3.75-1.88h-27.29c-1.55,0-2.92.77-3.78,1.95-.4.29-.75.64-1.04,1.04-.4.29-.75.64-1.04,1.04-.4.29-.75.64-1.04,1.04-.4.29-.75.64-1.04,1.04-.4.29-.75.64-1.04,1.04-.4.29-.75.64-1.04,1.04-.4.29-.75.64-1.04,1.04-.4.29-.75.64-1.04,1.04-1.01.73-1.72,1.85-1.89,3.17-.13.99-.36,2.39-.68,4.08-1.21-5.76-2.24-10.82-2.61-13.47-.32-2.31-2.29-4.02-4.62-4.02h-29.48c-1.39,0-2.69.62-3.58,1.68-.07-.09-.13-.18-.21-.26-.11-.11-.22-.21-.33-.31.14-.15.28-.29.42-.44,1.92-1.68,3.19-4.04,3.19-7.4,0-11-12.65-11-20.22-11-5.75,0-14.41,0-18.36,4.68-.37.32-.72.66-1.04,1.04-.37.32-.72.66-1.04,1.04-.37.32-.72.66-1.04,1.04-.37.32-.72.66-1.04,1.04-.37.32-.72.66-1.04,1.04-.37.32-.72.66-1.04,1.04-.37.32-.72.66-1.04,1.04-.37.32-.72.66-1.04,1.04-1.37,1.17-2.38,2.71-2.84,4.75h-13.79c-1.55,0-2.93.77-3.78,1.95-.4.29-.75.64-1.04,1.04-.4.29-.75.64-1.04,1.04-.4.29-.75.64-1.04,1.04-.4.29-.75.64-1.04,1.04-.4.29-.75.64-1.04,1.04-.4.29-.75.64-1.04,1.04-.21.15-.4.32-.58.5-.25-1.82-.44-3.36-.55-4.47-.24-2.4-2.26-4.2-4.64-4.2-.1,0-.19,0-.29,0-3.66.22-9.37.22-13.54.22s-11.79-.12-15.52-.23c-.05,0-.1,0-.14,0-1.55,0-2.93.77-3.78,1.95-.4.29-.75.64-1.04,1.04-.4.29-.75.64-1.04,1.04-.4.29-.75.64-1.04,1.04-.4.29-.75.64-1.04,1.04-.4.29-.75.64-1.04,1.04-.4.29-.75.64-1.04,1.04-.29.21-.55.44-.78.71-.28-2.01-.48-3.63-.58-4.64-.22-2.4-2.23-4.25-4.65-4.25h-26.83c-1.45,0-2.82.67-3.7,1.83-.03.04-.05.07-.07.11-.36.26-.69.57-.96.93-.03.04-.05.07-.07.11-.36.26-.69.57-.96.93-.03.04-.05.07-.07.11-.36.26-.69.57-.96.93-.03.04-.05.07-.07.11-.36.26-.69.57-.96.93-.03.04-.05.07-.07.11-.36.26-.69.57-.96.93-.03.04-.05.07-.07.11-.09.06-.18.13-.26.2-6.28-5.99-16.11-8.82-29.92-8.82-15.03,0-25.92,3.57-32.95,10.95-.36.34-.7.68-1.04,1.04-.36.34-.7.68-1.04,1.04-.35.34-.7.68-1.04,1.04-.36.34-.7.68-1.04,1.04-.36.34-.7.68-1.04,1.04-.35.34-.7.68-1.04,1.04-.36.34-.7.68-1.04,1.04-.36.34-.7.68-1.04,1.04-.25.24-.5.48-.74.72-3.12-17.24-20.99-19.74-38.5-19.74-12.44,0-26.12,1.38-33.69,9.5-.36.33-.7.68-1.04,1.04-.36.33-.7.68-1.04,1.04-.36.33-.7.68-1.04,1.04-.36.33-.7.68-1.04,1.04-.36.33-.7.68-1.04,1.04-.36.33-.7.68-1.04,1.04-.33.3-.64.62-.95.94.03-3.64.09-7.06.17-10.62.03-1.26-.45-2.47-1.33-3.37-.88-.9-2.08-1.4-3.34-1.4h-27.52c-1.25,0-2.45.5-3.33,1.39-.16.16-.29.35-.43.53-.22.15-.42.32-.61.51-.16.16-.29.35-.43.53-.21.15-.42.32-.61.51-.16.16-.29.35-.43.53-.21.15-.42.32-.61.51-.16.16-.29.35-.43.53-.22.15-.42.32-.61.51-.16.16-.29.35-.43.53-.21.15-.42.32-.61.51-.16.16-.29.35-.43.53-.21.15-.42.32-.61.51-.16.16-.29.35-.43.53-.21.15-.42.32-.61.51-.16.16-.29.35-.43.53-.21.15-.42.32-.61.51-.16.16-.29.35-.43.53-.21.15-.42.32-.61.51-.88.89-1.36,2.1-1.34,3.35.11,7.1.23,14.45.23,37.47-1.35-.36-1.94-1.52-1.94-5.3,0-17.46,0-31.24.34-41.42.04-1.26-.43-2.49-1.31-3.4-.88-.91-2.09-1.42-3.36-1.42h-27.64c-1.27,0-2.5.52-3.38,1.44-.13.14-.24.3-.35.45-.25.17-.48.37-.69.59-.13.14-.24.3-.35.45-.25.17-.48.37-.69.59-.13.14-.24.3-.35.45-.25.17-.48.37-.69.59-.13.14-.24.3-.35.45-.25.17-.48.37-.69.59-.13.14-.24.3-.35.45-.25.17-.48.37-.69.59-.13.14-.24.3-.35.45-.25.17-.48.37-.69.59-.13.14-.24.3-.35.45-.24.17-.48.37-.69.59-.13.14-.24.3-.35.45-.25.17-.48.37-.69.59-.13.14-.24.3-.35.45-.25.17-.48.37-.69.59-.3.32-.53.68-.73,1.06-8.72-10.52-22.87-13.34-35.49-13.34-15.31,0-26.6,3.87-33.81,11.54-.35.34-.7.68-1.04,1.04-.35.34-.7.68-1.04,1.04-.35.34-.7.68-1.04,1.04-.35.34-.7.68-1.04,1.04-.35.34-.7.68-1.04,1.04-.35.34-.7.68-1.04,1.04-.35.34-.7.68-1.04,1.04-.35.34-.7.68-1.04,1.04-.63.61-1.23,1.24-1.8,1.9-2.13-13.93-11.7-21.51-27.47-21.51-8.13,0-14.64,1.72-19.63,5.23.02-5.75.15-10.8.34-16.52.04-1.26-.43-2.49-1.31-3.4s-2.09-1.42-3.36-1.42H14.01c-1.25,0-2.45.5-3.33,1.4-.16.16-.29.34-.42.52-.22.16-.43.32-.62.51-.16.16-.29.34-.42.52-.22.16-.43.32-.62.51-.16.16-.29.34-.42.52-.22.16-.43.32-.62.51-.16.16-.29.34-.42.52-.22.16-.43.32-.62.51-.16.16-.29.34-.42.52-.22.16-.43.32-.62.51-.16.16-.29.34-.42.52-.22.16-.43.32-.62.51-.16.16-.29.34-.42.52-.22.16-.43.32-.62.51-.16.16-.29.34-.42.52-.22.16-.43.32-.62.51-.16.16-.29.34-.42.52-.22.16-.43.32-.62.51-.88.89-1.36,2.1-1.34,3.36.22,12,.34,30.87.34,50.47,0,18.32-.13,27.98-.34,38.48-.03,1.26.45,2.47,1.33,3.36.88.9,2.08,1.4,3.34,1.4h27.52c1.26,0,2.47-.51,3.35-1.42.15-.15.26-.32.38-.49.23-.16.45-.34.65-.55.15-.15.26-.32.38-.49.23-.16.45-.34.65-.55.15-.15.26-.32.38-.49.23-.16.45-.34.65-.55.15-.15.26-.32.38-.49.23-.16.45-.34.65-.55.15-.15.26-.32.38-.49.23-.16.45-.34.65-.55.15-.15.26-.32.38-.49.23-.16.45-.34.65-.55.15-.15.26-.32.38-.49.23-.16.45-.34.65-.55.15-.15.26-.32.38-.49.23-.16.45-.34.65-.55.15-.15.26-.32.38-.49.23-.16.45-.34.65-.55.88-.91,1.35-2.13,1.31-3.4-.23-7.06-.23-13.77-.23-36.01,0-.2,0-.38,0-.57,1.4.38,1.93,1.61,1.93,5.65,0,16.93-.11,30.12-.34,40.31-.03,1.26.45,2.47,1.33,3.37.88.9,2.08,1.41,3.34,1.41h27.64c1.27,0,2.5-.52,3.38-1.45.13-.14.24-.3.35-.45.25-.17.48-.37.69-.59.13-.14.24-.3.35-.45.25-.17.48-.37.69-.59.13-.14.24-.3.35-.45.25-.17.48-.37.69-.59.13-.14.24-.3.35-.45.25-.17.48-.37.69-.59.13-.14.24-.3.35-.45.25-.17.48-.37.69-.59.13-.14.24-.3.35-.45.25-.17.48-.37.69-.59.13-.14.24-.3.35-.45.25-.17.48-.37.69-.59.13-.14.24-.3.35-.45.25-.17.48-.37.69-.59.13-.14.24-.3.35-.45.25-.17.48-.37.69-.59.32-.34.57-.72.77-1.13,7.24,8.84,18.79,13.41,34.41,13.41,14.5,0,25.65-4.08,33.08-11.83.35-.34.7-.68,1.04-1.04.35-.34.7-.68,1.04-1.04.35-.34.7-.68,1.04-1.04.35-.34.7-.68,1.04-1.04.35-.34.7-.68,1.04-1.04.35-.34.7-.68,1.04-1.04.35-.34.7-.68,1.04-1.04.35-.34.7-.68,1.04-1.04,1.16-1.11,2.24-2.29,3.23-3.56,1.58,14.9,11.52,23.34,27.81,23.34,8.15,0,14.67-1.73,19.67-5.25.12,1.01.57,1.95,1.29,2.69.88.9,2.08,1.41,3.34,1.41h27.41c1.26,0,2.46-.51,3.34-1.41.15-.16.28-.33.41-.51.22-.16.44-.33.63-.53.15-.16.28-.33.41-.51.22-.16.44-.33.63-.53.15-.16.28-.33.41-.51.22-.16.44-.33.63-.53.15-.16.28-.33.41-.51.22-.16.44-.33.63-.53.15-.16.28-.33.41-.51.22-.16.44-.33.63-.53.15-.16.28-.33.41-.51.22-.16.44-.33.63-.53.15-.16.28-.33.41-.51.22-.16.44-.33.63-.53.04-.04.06-.08.09-.12,5.85,7.08,17.16,10.28,35.02,10.28,11.56,0,25.69-1.3,33.58-9.73.36-.33.7-.68,1.04-1.04.36-.33.7-.68,1.04-1.04.36-.33.7-.68,1.04-1.04.36-.33.7-.68,1.04-1.04.36-.33.7-.68,1.04-1.04.36-.33.7-.68,1.04-1.04.36-.33.7-.68,1.04-1.04.36-.33.7-.68,1.04-1.04.07-.07.15-.13.22-.2,6.21,12.22,18.54,18.23,37.23,18.23,16.64,0,26.75-2.78,32.78-9.03.09-.1.17-.2.26-.3.26-.24.53-.49.77-.74.09-.1.17-.2.26-.3.26-.24.53-.48.77-.74.09-.1.17-.2.26-.3.26-.24.53-.48.77-.74.09-.1.17-.2.26-.3.26-.24.53-.49.77-.74.09-.1.17-.2.27-.3.26-.24.53-.48.77-.74.09-.1.17-.2.26-.3.26-.24.53-.48.77-.74.09-.1.17-.2.26-.3.26-.24.53-.49.77-.74.09-.1.17-.2.26-.3.26-.24.53-.48.77-.74.09-.1.17-.2.26-.3.26-.24.53-.48.77-.74,2.01-2.08,3.39-4.41,4.36-6.85,1.74,8.69,3.24,16.14,4.13,20.08.48,2.14,2.38,3.64,4.55,3.64.08,0,.16,0,.24,0,1.35-.07,5.49-.22,14.74-.22,6.11,0,12.32.12,15.5.23.05,0,.11,0,.16,0,1.53,0,2.9-.75,3.76-1.93.4-.29.75-.64,1.04-1.04.4-.29.75-.64,1.04-1.04.4-.29.75-.64,1.04-1.04.4-.29.75-.64,1.04-1.04.4-.29.75-.64,1.04-1.04.4-.29.75-.64,1.04-1.04.38-.27.71-.6.99-.97.35,2.14.66,3.94.89,5.27.4,2.24,2.34,3.86,4.59,3.86.07,0,.14,0,.21,0,2.58-.11,9.27-.23,17.07-.23,5.07,0,10.15.07,15.53.23.05,0,.09,0,.14,0,1.53,0,2.9-.75,3.76-1.93.4-.29.75-.64,1.04-1.04.4-.29.75-.64,1.04-1.04.4-.29.75-.64,1.04-1.04.4-.29.75-.64,1.04-1.04.4-.29.75-.64,1.04-1.04.4-.29.75-.64,1.04-1.04.4-.29.75-.64,1.04-1.04.4-.29.75-.64,1.04-1.04.92-.66,1.6-1.64,1.84-2.82.49-2.37,1.28-6.22,2.24-10.98.56-2.78,1.19-5.86,1.85-9.12-.01,10.38-.07,19.7-.34,28.33-.04,1.26.43,2.49,1.31,3.39.88.91,2.09,1.42,3.35,1.42h27.41c1.26,0,2.47-.51,3.35-1.42.15-.15.26-.32.38-.49.23-.16.45-.34.65-.55.15-.15.26-.32.38-.49.23-.16.45-.34.65-.55.15-.15.26-.32.38-.49.23-.16.45-.34.65-.55.15-.15.26-.32.38-.49.23-.16.45-.34.65-.55.15-.15.26-.32.38-.49.23-.16.45-.34.65-.55.15-.15.26-.32.38-.49.23-.16.45-.34.65-.55.15-.15.26-.32.38-.49.23-.16.45-.34.65-.55.15-.15.26-.32.38-.49.23-.16.45-.34.65-.55.15-.15.26-.32.38-.49.23-.16.45-.34.65-.55.88-.91,1.35-2.13,1.31-3.4-.25-7.68-.32-14.71-.33-23.87,1.07,3.67,2.13,7.28,3.13,10.71,3.1,10.63,5.78,19.81,7.06,24,.6,1.98,2.43,3.31,4.46,3.31.14,0,.27,0,.41-.02,2.45-.21,9.93-.21,18.6-.21,8.06,0,13.54.12,17.84.23.04,0,.08,0,.12,0,1.52,0,2.91-.75,3.77-1.93.4-.29.75-.64,1.04-1.04.4-.29.75-.64,1.04-1.04.4-.29.75-.64,1.04-1.04.4-.29.75-.64,1.04-1.04.4-.29.75-.64,1.04-1.04.4-.29.75-.64,1.04-1.04.4-.29.75-.64,1.04-1.04.4-.29.75-.64,1.04-1.04.83-.6,1.46-1.46,1.76-2.5.68-2.39,1.77-6.27,3.13-11.08.42-1.49.86-3.07,1.33-4.71,3.56,20.17,17.07,30.02,41.02,30.02,16.64,0,26.75-2.78,32.78-9.03.09-.1.17-.2.26-.3.26-.24.53-.49.77-.74.09-.1.17-.2.26-.3.26-.24.53-.48.77-.74.09-.1.17-.2.26-.3.26-.24.53-.48.77-.74.09-.1.17-.2.26-.3.26-.24.53-.48.77-.74.09-.1.17-.2.26-.3.26-.24.53-.49.77-.74.09-.1.17-.2.26-.3.26-.24.53-.48.77-.74.09-.1.17-.2.26-.3.26-.24.53-.48.77-.74.03-.03.05-.06.08-.09,3.97,11.37,16.07,16.38,38.41,16.38,11.56,0,25.69-1.3,33.58-9.73.36-.33.7-.68,1.04-1.04.36-.33.7-.68,1.04-1.04.36-.33.7-.68,1.04-1.04.36-.33.7-.68,1.04-1.04.36-.33.7-.68,1.04-1.04.36-.33.7-.68,1.04-1.04.36-.33.7-.68,1.04-1.04.36-.33.7-.68,1.04-1.04,4.34-4.04,7.13-9.91,7.13-18.43Z"/>
      </g>
      <path class="cls-1" d="m222.42,17.8c-13.82,0-15.78-3.34-15.78-6.79,0-3.92,2.3-6.33,15.78-6.33s15.55,2.42,15.55,6.33c0,3.45-1.96,6.79-15.55,6.79Zm-13.82,76.35c.35-11.06.35-23.26.35-37.2,0-13.13-.12-23.61-.35-34.55h27.41c-.34,11.06-.34,21.3-.34,36.04,0,15.66,0,24.99.34,35.7h-27.41Zm86.71-30.4c3.45.34,7.37.34,11.86.34s9.1-.11,13.13-.34c0,1.15.11,2.07.11,3.11,0,19-8.98,28.79-36.73,28.79-25.91,0-37.54-11.4-37.54-38.12s12.21-36.62,37.77-36.62,36.16,6.56,36.16,27.18c0,1.15,0,2.42-.12,3.8-3.34-.12-7.83-.23-12.9-.23-4.61,0-9.1.12-11.75.23v-1.61c-.12-7.37-2.65-9.9-10.82-9.9s-11.98,3.45-11.98,17.16,3.34,17.5,12.09,17.5c7.95,0,10.59-3.57,10.71-9.21v-2.07Zm70.81,31.9c-25.91,0-38.69-13.24-38.69-38.81s14.16-35.93,38.69-35.93,39.15,10.25,39.15,35.93-13.24,38.81-39.15,38.81Zm0-54.47c-7.71,0-12.44,3.8-12.44,16.12s4.61,17.04,12.44,17.04,12.44-4.84,12.44-17.04-4.61-16.12-12.44-16.12Zm96.61,52.97c.23-10.02.35-23.61.35-40.42,0-7.49-2.42-10.48-8.98-10.48s-11.75,3.69-11.75,14.05c0,22.23.12,29.71.23,36.85h-27.41c.23-10.25.34-19.46.34-35.7,0-15.32-.12-26.14-.34-36.04h27.41c-.11,4.49-.11,7.83-.34,11.86l.69.23c4.26-9.21,12.32-13.13,23.84-13.13,14.85,0,23.38,6.68,23.38,23.84,0,11.52-.23,17.39-.23,24.87,0,8.98.11,16.47.46,24.07h-27.64Zm53.89-76.35c-13.82,0-15.78-3.34-15.78-6.79,0-3.92,2.3-6.33,15.78-6.33s15.55,2.42,15.55,6.33c0,3.45-1.96,6.79-15.55,6.79Zm-13.82,76.35c.35-11.06.35-23.26.35-37.2,0-13.13-.12-23.61-.35-34.55h27.41c-.34,11.06-.34,21.3-.34,36.04,0,15.66,0,24.99.34,35.7h-27.41Zm86.71-30.4c3.45.34,7.37.34,11.86.34s9.1-.11,13.13-.34c0,1.15.11,2.07.11,3.11,0,19-8.98,28.79-36.73,28.79-25.91,0-37.54-11.4-37.54-38.12s12.21-36.62,37.77-36.62,36.16,6.56,36.16,27.18c0,1.15,0,2.42-.12,3.8-3.34-.12-7.83-.23-12.9-.23-4.61,0-9.1.12-11.75.23v-1.61c-.12-7.37-2.65-9.9-10.82-9.9s-11.98,3.45-11.98,17.16,3.34,17.5,12.09,17.5c7.95,0,10.59-3.57,10.71-9.21v-2.07ZM61.56,208.32c.23-10.13.35-23.38.35-40.42,0-7.6-2.42-10.48-8.98-10.48s-11.63,3.92-11.63,14.74c0,22.23,0,29.02.23,36.16H14.01c.23-11.06.34-20.96.34-38.58,0-18.66-.12-37.77-.34-50.55h27.75c-.23,6.79-.35,11.86-.35,17.73,0,4.15-.11,7.37-.34,11.4l.69.12c4.15-9.1,11.98-13.13,23.95-13.13,14.28,0,23.26,6.8,23.26,23.15,0,11.75-.12,18.08-.12,26.14,0,8.87,0,16.24.35,23.72h-27.64Zm75.53,1.5c-25.91,0-38.69-13.24-38.69-38.81s14.16-35.93,38.69-35.93,39.15,10.25,39.15,35.93-13.24,38.81-39.15,38.81Zm0-54.47c-7.71,0-12.44,3.8-12.44,16.12s4.61,17.04,12.44,17.04,12.44-4.84,12.44-17.04-4.61-16.12-12.44-16.12Zm124.13-18.77c-.23,10.25-.23,19.46-.23,35.7,0,15.2,0,26.03.23,36.04h-27.41c.12-4.49.12-7.83.34-11.86l-.69-.11c-4.15,9.1-11.98,13.13-23.95,13.13-14.16,0-23.38-6.8-23.38-23.03,0-12.09.23-18.31.23-26.14,0-8.87,0-16.24-.34-23.72h27.64c-.34,10.25-.34,24.3-.34,41.57,0,7.25,2.53,10.13,8.87,10.13s11.75-3.91,11.75-14.05c0-22.92-.12-30.4-.23-37.66h27.52Zm56.42,21.99c0-4.26-2.3-6.33-10.02-6.33s-9.56,1.73-9.56,4.72c0,3.22,1.96,5.64,16.35,7.37,21.07,2.99,27.52,8.98,27.52,23.03,0,14.86-9.44,22.45-35.01,22.45-27.75,0-35.24-7.48-35.24-21.53,0-1.27.11-2.76.23-4.15,3.22.23,7.6.58,13.47.58,3.57,0,7.02-.12,9.44-.34,0,.57-.12,1.04-.12,1.5,0,4.38,2.65,6.56,11.06,6.56,7.25,0,9.56-1.61,9.56-5.07,0-3.8-3-5.76-16.12-7.25-22.11-2.65-27.52-10.02-27.52-23.03,0-15.43,10.48-21.77,34.89-21.77,25.8,0,34.32,6.56,34.32,20.73,0,1.27-.12,2.65-.23,4.15-3.34-.35-8.87-.58-13.7-.58-3.8,0-7.26.12-9.33.23v-1.27Zm103.06,25.45c.58,16.7-5.18,25.8-34.43,25.8-24.87,0-37.31-10.94-37.31-37.19,0-27.64,13.36-37.54,38.12-37.54,26.26,0,33.85,10.48,33.85,29.37,0,5.87-.23,10.48-.57,13.59-7.14-.23-17.85-.23-27.41-.23-7.03,0-13.47,0-18.08.12.58,11.28,4.03,14.86,12.09,14.86,7.37,0,9.56-2.88,9.67-8.75,2.76.23,6.79.35,11.4.35,4.84,0,9.1-.12,12.67-.35Zm-45.72-17.27c6.68.12,14.16.12,21.65,0,.11-.92.11-1.96.11-3.11,0-8.75-2.76-11.98-10.13-11.98s-10.71,2.76-11.63,15.08Zm161.67-30.17c-4.26,17.16-12.9,60.69-15.2,71.74-4.03-.12-9.33-.23-15.66-.23-7.95,0-14.62.12-17.27.23-1.04-5.87-3.34-20.27-5.41-33.74-.69-4.26-1.5-8.52-2.19-12.21h-.46c-.69,3.68-1.5,8.06-2.42,12.32-2.07,13.24-4.72,27.41-5.99,33.63-3.34-.12-9.56-.23-15.66-.23-7.95,0-12.67.12-14.97.23-2.65-11.75-10.82-55.39-15.2-71.74h26.83c.46,5.07,3.34,22.8,5.3,35.93.69,4.49,1.27,8.64,1.84,11.98h.69c.58-3.46,1.38-7.6,2.19-12.21,2.3-12.67,5.3-29.48,5.99-35.7,3.8.12,11.63.23,15.66.23,4.26,0,10.02,0,13.82-.23.57,5.76,3.22,22.8,5.64,36.04.92,4.72,1.5,8.75,1.96,12.09h.69c.46-3.34,1.15-7.37,2.07-12.09,2.07-13.01,4.72-29.48,5.41-36.04h22.34Zm20.95-4.61c-13.82,0-15.78-3.34-15.78-6.79,0-3.91,2.3-6.33,15.78-6.33s15.55,2.42,15.55,6.33c0,3.46-1.96,6.79-15.55,6.79Zm-13.82,76.35c.35-11.06.35-23.26.35-37.2,0-13.13-.12-23.61-.35-34.55h27.41c-.34,11.06-.34,21.3-.34,36.04,0,15.66,0,24.99.34,35.7h-27.41Zm113.2-71.74c-5.53,18.31-17.39,60.8-20.5,71.74-4.38-.12-9.9-.23-17.96-.23-9.21,0-16.35,0-19,.23-3.22-10.59-15.43-53.09-21.19-71.74h29.48c.81,5.76,4.26,20.84,6.91,34.2,1.38,6.79,2.53,12.9,3.45,17.85h1.15c.92-4.95,2.07-11.06,3.57-17.96,2.65-13.47,6.1-28.67,6.8-34.09h27.29Zm73.24,47.44c.58,16.7-5.18,25.8-34.43,25.8-24.87,0-37.31-10.94-37.31-37.19,0-27.64,13.36-37.54,38.12-37.54,26.26,0,33.85,10.48,33.85,29.37,0,5.87-.23,10.48-.57,13.59-7.14-.23-17.85-.23-27.41-.23-7.03,0-13.47,0-18.08.12.58,11.28,4.03,14.86,12.09,14.86,7.37,0,9.56-2.88,9.67-8.75,2.76.23,6.79.35,11.4.35,4.84,0,9.1-.12,12.67-.35Zm-45.72-17.27c6.68.12,14.16.12,21.65,0,.11-.92.11-1.96.11-3.11,0-8.75-2.76-11.98-10.13-11.98s-10.71,2.76-11.63,15.08Zm100.52-8.18c0-4.26-2.3-6.33-10.02-6.33s-9.56,1.73-9.56,4.72c0,3.22,1.96,5.64,16.35,7.37,21.07,2.99,27.52,8.98,27.52,23.03,0,14.86-9.44,22.45-35.01,22.45-27.75,0-35.24-7.48-35.24-21.53,0-1.27.11-2.76.23-4.15,3.22.23,7.6.58,13.47.58,3.57,0,7.02-.12,9.44-.34,0,.57-.12,1.04-.12,1.5,0,4.38,2.65,6.56,11.06,6.56,7.25,0,9.56-1.61,9.56-5.07,0-3.8-3-5.76-16.12-7.25-22.11-2.65-27.52-10.02-27.52-23.03,0-15.43,10.48-21.77,34.89-21.77,25.8,0,34.32,6.56,34.32,20.73,0,1.27-.12,2.65-.23,4.15-3.34-.35-8.87-.58-13.7-.58-3.8,0-7.26.12-9.33.23v-1.27Z"/>
    </g>
  </g>
</svg>