<svg width="293" height="186" viewBox="0 0 293 186" fill="none" xmlns="http://www.w3.org/2000/svg">
<g clip-path="url(#clip0_109_6)">
<path d="M1.65379 20.6282L39.8109 1.30725V18.6835H259.321L258.981 20.9884C260.359 21.3305 263.438 24.7877 263.438 27.2006C265.836 27.5427 272.368 29.6135 272.368 31.3421C272.368 34.0971 273.407 38.2386 273.407 38.2386C275.125 40.3093 272.369 43.0643 271.348 44.1087C273.407 45.8373 276.145 49.9788 275.805 51.3653L281.639 53.7782L286.436 54.8046L290.552 53.4181C290.552 53.4181 293.29 57.9017 291.232 59.9724C289.174 62.0432 286.776 63.0876 286.776 63.0876C286.776 63.0876 284.378 63.7718 284.038 65.1583C283.697 66.5448 280.959 74.1256 277.165 75.8542C277.165 75.8542 273.389 83.1108 269.272 82.0664L273.729 92.078L272.011 92.7623L270.972 97.2459L268.234 95.8594C268.234 95.8594 263.438 100.685 266.516 102.072L267.894 110.697C267.894 110.697 274.069 103.098 273.389 119.322L278.185 119.664L277.845 123.121L290.534 136.23L286.078 137.274L279.205 140.732C279.205 140.732 274.409 146.602 269.594 146.602C264.78 146.602 268.216 149.015 268.216 149.357C268.216 149.699 270.955 152.112 270.955 152.112H267.518L265.46 153.84L255.169 157.982C255.169 157.982 244.18 148.997 237.666 162.465H1.6001V20.6282H1.65379Z" fill="#F2F7F5" stroke="#00473E" stroke-width="3"/>
<mask id="mask0_109_6" style="mask-type:alpha" maskUnits="userSpaceOnUse" x="1" y="1" width="291" height="162">
<path d="M1.65379 20.6282L39.8109 1.30725V18.6835H259.321L258.981 20.9884C260.359 21.3305 263.438 24.7877 263.438 27.2006C265.836 27.5427 272.368 29.6135 272.368 31.3421C272.368 34.0971 273.407 38.2386 273.407 38.2386C275.125 40.3093 272.368 43.0643 271.348 44.1087C273.407 45.8373 276.145 49.9788 275.805 51.3653L281.639 53.7782L286.436 54.8046L290.552 53.4181C290.552 53.4181 293.29 57.9017 291.232 59.9724C289.174 62.0432 286.776 63.0876 286.776 63.0876C286.776 63.0876 284.378 63.7718 284.038 65.1583C283.697 66.5448 280.959 74.1256 277.165 75.8542C277.165 75.8542 273.389 83.1108 269.272 82.0664L273.729 92.078L272.011 92.7623L270.973 97.2459L268.234 95.8594C268.234 95.8594 263.438 100.685 266.516 102.072L267.894 110.697C267.894 110.697 274.069 103.098 273.389 119.322L278.185 119.664L277.845 123.121L290.534 136.23L286.078 137.274L279.205 140.732C279.205 140.732 274.409 146.602 269.594 146.602C264.78 146.602 268.216 149.015 268.216 149.357C268.216 149.699 270.955 152.112 270.955 152.112H267.518L265.46 153.84L255.169 157.982C255.169 157.982 244.18 148.997 237.666 162.465H1.6001V20.6282H1.65379Z" fill="#D9D9D9"/>
</mask>
<g mask="url(#mask0_109_6)">
<path opacity="0.1" d="M84 79V7H296L317 170H140V116H123V79H84Z" fill="#00473E"/>
<path d="M91 73V-23H-29L-10 118L69 102L91 73Z" fill="#FFA8BA" stroke="#00473E" stroke-width="2"/>
<path d="M72 98L-12 116V180H154V109H132V71H91L72 98Z" fill="#FAAE2B" stroke="#00473E" stroke-width="2"/>
</g>
<path d="M1.65379 20.6282L39.8109 1.30725V18.6835H259.321L258.981 20.9884C260.359 21.3305 263.438 24.7877 263.438 27.2006C265.836 27.5427 272.368 29.6135 272.368 31.3421C272.368 34.0971 273.407 38.2386 273.407 38.2386C275.125 40.3093 272.369 43.0643 271.348 44.1087C273.407 45.8373 276.145 49.9788 275.805 51.3653L281.639 53.7782L286.436 54.8046L290.552 53.4181C290.552 53.4181 293.29 57.9017 291.232 59.9724C289.174 62.0432 286.776 63.0876 286.776 63.0876C286.776 63.0876 284.378 63.7718 284.038 65.1583C283.697 66.5448 280.959 74.1256 277.165 75.8542C277.165 75.8542 273.389 83.1108 269.272 82.0664L273.729 92.078L272.011 92.7623L270.972 97.2459L268.234 95.8594C268.234 95.8594 263.438 100.685 266.516 102.072L267.894 110.697C267.894 110.697 274.069 103.098 273.389 119.322L278.185 119.664L277.845 123.121L290.534 136.23L286.078 137.274L279.205 140.732C279.205 140.732 274.409 146.602 269.594 146.602C264.78 146.602 268.216 149.015 268.216 149.357C268.216 149.699 270.955 152.112 270.955 152.112H267.518L265.46 153.84L255.169 157.982C255.169 157.982 244.18 148.997 237.666 162.465H1.6001V20.6282H1.65379Z" stroke="#00473E" stroke-width="3"/>
</g>
<defs>
<clipPath id="clip0_109_6">
<rect width="292" height="186" fill="white" transform="translate(0.800049)"/>
</clipPath>
</defs>
</svg>
