<svg width="271" height="147" viewBox="0 0 271 147" fill="none" xmlns="http://www.w3.org/2000/svg">
<g clip-path="url(#clip0_205_13)">
<path d="M264.498 128.619H264.509C264.937 128.498 265.356 128.348 265.763 128.168C265.82 128.144 265.878 128.12 265.933 128.094C269.105 126.638 271 123.556 271 119.435C271.061 118.082 270.851 116.73 270.383 115.459C269.915 114.188 269.198 113.022 268.274 112.03L268.083 111.809L267.989 111.699L267.891 111.59L267.153 110.78L267.091 110.711V68.6648C267.091 62.8832 263.348 59.1472 257.555 59.1472C256.811 59.1472 256.219 59.1604 255.663 59.2095C254.637 59.3158 253.627 59.5366 252.65 59.8677L243.123 62.648L243.035 62.6725L242.973 62.6927L242.951 62.6989C242.372 62.8797 241.805 63.0969 241.254 63.3492C239.785 63.9881 238.506 64.9933 237.539 66.268C236.931 67.1058 236.478 68.0453 236.201 69.0421C235.895 70.168 235.747 71.3308 235.761 72.4972C235.761 72.9249 235.781 73.3397 235.819 73.7416C235.85 74.0742 235.907 74.3946 235.959 74.707C235.969 74.764 235.973 74.8229 235.985 74.8825C236.12 75.5935 236.336 76.2868 236.628 76.9493C233.941 75.9749 231.101 75.4857 228.241 75.5047C224.615 75.4376 221.017 76.1543 217.695 77.6057C214.372 79.057 211.404 81.2087 208.993 83.913C207.176 81.3224 204.761 79.2056 201.953 77.7409C202.404 77.2303 202.8 76.6748 203.136 76.0831C205.641 71.6653 203.987 67.1948 203.099 64.7911C202.903 64.2516 202.675 63.6788 202.415 63.0727C203.214 60.9987 203.62 58.7944 203.612 56.5724C203.593 54.0077 203.105 51.4681 202.171 49.0786C202.785 47.7501 203.092 46.3007 203.067 44.838V43.9675C203.067 39.8577 200.857 36.7062 197.407 35.489C197.305 26.821 189.424 20.0556 179.381 20.0556C175.03 19.9622 170.793 21.4456 167.453 24.2312C166.703 22.8859 165.608 21.7631 164.281 20.9769C162.955 20.1907 161.443 19.7693 159.9 19.7554C158.542 16.4724 155.44 14.4451 151.341 14.4451H140.189C139.499 14.4435 138.81 14.5049 138.131 14.6285C137.446 14.5049 136.751 14.4435 136.055 14.4451H119.297C117.925 14.3902 116.558 14.645 115.299 15.1905C114.039 15.736 112.919 16.5582 112.022 17.5957C108.142 14.947 103.546 13.5391 98.8447 13.5587C92.1346 13.5587 87.5015 15.5237 84.5435 17.4895C85.6349 16.494 86.4914 15.2691 87.051 13.9033C87.6105 12.5374 87.8592 11.0646 87.7794 9.59113C87.7794 3.76477 84.0054 -0.000993964 78.1685 -0.000993964H65.3974C63.9363 -0.0253396 62.4909 0.30223 61.1837 0.953949C59.8765 1.60567 58.746 2.56232 57.888 3.74282L57.7411 3.93678L57.6074 4.13949C57.149 4.83178 56.7853 5.58204 56.5258 6.37036L52.3931 16.3205L47.7511 6.30279C45.7718 1.94377 42.7171 -0.000993964 37.8563 -0.000993964H24.8846L24.6075 0.0183159C7.86354 1.13988 0.624178 13.1322 0.982939 23.8012C1.36544 35.1994 9.44384 43.7946 19.7732 43.7946C19.993 43.7946 20.2126 43.7902 20.4228 43.7814V49.1251L19.8215 49.7253C18.7025 50.7364 17.8243 51.9845 17.2511 53.3782C16.678 54.7719 16.4244 56.2758 16.509 57.7799C16.48 59.4534 16.8469 61.1102 17.58 62.6155C5.28983 65.831 -0.207709 75.8953 0.00508584 85.1206C0.262726 96.4775 8.516 105.371 18.7908 105.371C19.0098 105.371 19.2305 105.371 19.4406 105.36V110.702L18.8402 111.303C16.7316 113.457 15.5442 116.345 15.5286 119.356C15.5149 120.62 15.7541 121.873 16.2323 123.043C16.7105 124.213 17.418 125.276 18.3132 126.169C19.2083 127.063 20.2733 127.769 21.4455 128.246C22.6177 128.723 23.8735 128.962 25.1394 128.949H34.2203C35.4863 128.962 36.7423 128.724 37.9146 128.246C39.087 127.769 40.1519 127.063 41.0472 126.17C41.9425 125.276 42.6501 124.213 43.1283 123.043C43.6065 121.873 43.8457 120.62 43.832 119.356C43.8302 117.634 43.4423 115.934 42.6968 114.381C43.7277 114.708 44.8027 114.875 45.8843 114.876H53.0455C53.761 114.877 54.4743 114.797 55.1717 114.637V117.662C55.1717 135.759 65.2477 147 81.4685 147C88.43 147 94.1034 145.527 98.3329 142.621C102.846 139.52 105.435 134.911 105.435 129.977C105.437 128.674 105.251 127.377 104.882 126.127C104.97 126.027 105.068 125.929 105.156 125.823C109.259 128.209 113.933 129.442 118.681 129.391C121.84 129.402 124.96 128.697 127.807 127.331C129.452 128.426 131.395 128.991 133.372 128.948H149.981C151.516 128.633 153.098 128.633 154.633 128.948H171.244C173.156 128.988 175.038 128.465 176.654 127.444C179.73 128.843 183.075 129.558 186.456 129.537C189.647 129.542 192.78 128.687 195.525 127.063C197.99 128.349 200.729 129.021 203.51 129.022H207.717C209.034 129.032 210.338 128.769 211.549 128.252C212.759 127.735 213.85 126.973 214.752 126.016C218.724 128.273 223.226 129.438 227.797 129.391C231.601 129.396 235.336 128.382 238.613 126.455C239.629 127.357 240.815 128.049 242.101 128.489C243.387 128.93 244.749 129.111 246.106 129.022H261.388C261.873 129.021 262.357 128.992 262.838 128.935C262.942 128.923 263.045 128.91 263.148 128.894C263.604 128.832 264.055 128.74 264.498 128.619Z" fill="#224B59"/>
<path d="M92.615 125.251C86.9311 125.251 86.3411 135.272 81.1725 135.272C76.1534 135.272 74.5274 131.957 74.5274 122.82V78.0236C74.5734 76.9794 74.9927 75.9862 75.7092 75.224L77.5559 73.3811C78.1405 72.7892 78.4826 72.0009 78.5152 71.1704C78.5285 70.9929 78.503 70.8146 78.441 70.6477C78.3789 70.4808 78.2816 70.3292 78.1554 70.2034C78.0293 70.0775 77.8774 69.9802 77.7102 69.9183C77.543 69.8563 77.3643 69.8311 77.1864 69.8444H65.0784C64.6876 69.8327 64.3022 69.9389 63.9728 70.1492C63.6434 70.3595 63.3851 70.664 63.2318 71.023L52.453 97.1051C52.1576 97.8423 52.0135 98.1372 51.7893 98.1372C51.6415 98.1372 51.4181 97.8423 51.1244 97.1051L39.2378 71.3178C39.0296 70.8701 38.6956 70.4925 38.2762 70.2308C37.8569 69.9692 37.3705 69.835 36.8761 69.8444H24.7696C2.10436 70.8755 5.50111 97.1051 18.7902 97.1051C25.8766 97.1051 26.8376 88.0431 20.4881 88.0431C16.5751 88.0431 13.5478 85.4638 13.5478 82.5906C13.5478 77.5067 18.6424 73.9699 22.8508 73.9699C23.5682 73.9436 24.2837 74.0603 24.9553 74.3133C25.6269 74.5663 26.2411 74.9505 26.762 75.4434C27.3685 76.1682 27.7074 77.0786 27.7223 78.0227V112.43C27.7104 113.503 27.2879 114.531 26.5413 115.304L24.6949 117.147C24.136 117.749 23.8202 118.536 23.8085 119.357C23.7952 119.534 23.8205 119.712 23.8826 119.879C23.9446 120.046 24.042 120.198 24.1681 120.324C24.2942 120.45 24.4461 120.547 24.6133 120.609C24.7805 120.671 24.9593 120.696 25.1371 120.683H34.2223C34.4001 120.696 34.5786 120.671 34.7459 120.609C34.9131 120.547 35.065 120.45 35.1911 120.324C35.3172 120.198 35.4148 120.046 35.4768 119.879C35.5389 119.712 35.5642 119.534 35.5509 119.357C35.5597 118.532 35.2409 117.738 34.6645 117.147L32.8178 115.304C32.0704 114.532 31.6475 113.503 31.636 112.43V81.7797C31.636 80.9767 31.6362 80.5905 31.7294 80.5905C31.8226 80.5905 31.9817 80.9214 32.3009 81.5559L43.521 105.061C43.741 105.505 44.0759 105.883 44.4911 106.155C44.9063 106.427 45.3868 106.583 45.8829 106.608H53.0449C53.2158 106.607 53.3848 106.572 53.5417 106.504C53.6985 106.436 53.8399 106.337 53.9573 106.213C54.0747 106.089 54.1656 105.943 54.2246 105.783C54.2836 105.622 54.3095 105.452 54.3006 105.282C54.2976 104.476 54.1487 103.677 53.8609 102.924L62.8659 81.1145C63.157 80.4238 63.3056 80.0745 63.3795 80.0745C63.4533 80.0745 63.4559 80.4431 63.4559 81.1882V117.659C63.4559 128.637 68.0337 138.731 81.4705 138.731C100.661 138.734 99.4068 125.251 92.615 125.251Z" fill="#FCF8EE"/>
<path d="M88.4135 82.6643C89.8151 82.6643 91.1851 82.2495 92.3505 81.4723C93.5158 80.6952 94.4242 79.5906 94.9605 78.2983C95.4969 77.0059 95.6371 75.5839 95.3637 74.2119C95.0902 72.84 94.4153 71.5798 93.4243 70.5907C92.4332 69.6016 91.1707 68.928 89.796 68.6551C88.4214 68.3822 86.9966 68.5222 85.7017 69.0575C84.4068 69.5928 83.2999 70.4994 82.5213 71.6624C81.7426 72.8255 81.327 74.1929 81.327 75.5917C81.3445 77.4621 82.0966 79.2509 83.4218 80.5735C84.747 81.8961 86.5395 82.6469 88.4135 82.6643Z" fill="#FCF8EE"/>
<path d="M81.3262 120.683H97.9321C98.8923 120.683 98.8924 120.683 98.8924 119.725V119.063C98.8924 118.105 98.9655 118.03 98.2286 117.368L95.718 114.936C94.9793 114.273 95.0533 114.198 95.0533 113.241V85.2452C95.0533 84.2878 94.9803 84.2878 94.0209 84.2878H93.504C92.8497 84.2354 92.192 84.3361 91.5835 84.5818L81.3237 87.6034C80.3626 87.8973 80.3626 87.8973 80.3626 88.8565V89.6666C80.3626 90.5503 80.4373 90.624 81.3237 90.7715C83.0946 91.0655 84.2755 92.2441 84.2755 93.7921V113.242C84.2755 114.2 84.2756 114.2 83.537 114.938L81.1004 117.37C80.3618 118.107 80.3617 118.107 80.3617 119.064V119.727C80.3661 120.683 80.366 120.683 81.3262 120.683Z" fill="#FCF8EE"/>
<path d="M129.532 111.178C129.093 110.81 128.867 110.663 128.646 110.663C128.35 110.663 128.055 110.884 127.612 111.4C126.944 112.035 126.156 112.531 125.294 112.86C124.433 113.189 123.515 113.343 122.593 113.315C118.02 113.315 112.627 110 112.627 99.4632C112.627 96.4425 113.438 87.3805 118.09 87.3805C124.069 87.3805 120.009 97.6211 127.318 97.6211C134.627 97.6211 131.379 83.5489 118.755 83.5489C106.797 83.5489 100.962 93.2744 100.962 102.558C100.962 111.915 106.87 121.126 118.681 121.126C121.176 121.142 123.619 120.414 125.697 119.035C127.775 117.657 129.393 115.691 130.345 113.389C130.786 112.136 130.638 112.063 129.532 111.178Z" fill="#FCF8EE"/>
<path d="M156.847 114.937L154.411 117.369C153.672 118.106 153.672 118.106 153.672 119.063V119.726C153.672 120.683 153.672 120.683 154.631 120.683H171.243C172.202 120.683 172.202 120.683 172.202 119.726V119.063C172.202 118.106 172.275 118.031 171.537 117.369L169.028 114.937C168.29 114.273 168.363 114.199 168.363 113.241V99.4614C168.363 89.3691 161.498 83.6199 155.003 83.6199C152.312 83.6268 149.725 84.6543 147.766 86.4941C147.473 86.7854 147.31 86.9329 147.218 86.9329C147.102 86.9329 147.102 86.6924 147.102 86.1974V68.4445C147.102 67.4871 147.027 67.4871 146.069 67.4871H145.552C145.231 67.4871 145.01 67.4792 144.824 67.4792C144.416 67.4785 144.012 67.5563 143.633 67.7082L133.371 70.8035C132.412 71.0975 132.412 71.0975 132.412 72.0567V72.9413C132.412 73.7514 132.485 73.8242 133.371 73.9725C134.16 74.0304 134.899 74.3792 135.445 74.951C135.991 75.5228 136.304 76.2767 136.323 77.066V113.24C136.323 114.197 136.323 114.197 135.585 114.935L133.15 117.367C132.412 118.104 132.412 118.104 132.412 119.062V119.724C132.412 120.682 132.412 120.682 133.371 120.682H149.981C150.942 120.682 150.942 120.682 150.942 119.724V119.062C150.942 118.104 151.015 118.03 150.277 117.367L147.767 114.935C147.028 114.272 147.103 114.197 147.103 113.24V98.3583C147.103 95.4104 148.137 88.559 152.196 88.559C154.855 88.559 157.586 92.0958 157.586 98.6514V113.24C157.584 114.199 157.584 114.199 156.847 114.937Z" fill="#FCF8EE"/>
<path d="M196.419 117.072L196.567 117.293C197.369 118.375 198.416 119.253 199.622 119.854C200.828 120.456 202.16 120.766 203.508 120.757H207.716C207.894 120.77 208.072 120.745 208.239 120.683C208.406 120.621 208.558 120.524 208.684 120.398C208.81 120.272 208.908 120.121 208.97 119.954C209.032 119.787 209.057 119.609 209.044 119.431V119.209C209.049 118.5 208.786 117.816 208.306 117.293C206.387 115.378 205.649 112.431 205.649 109.851V102.779C205.649 90.99 201.219 83.4006 191.105 83.4006C176.047 83.4006 173.98 96.5154 181.509 96.5154C188.448 96.5154 184.831 86.9373 190.811 86.9373C193.025 86.9373 194.058 88.6319 194.576 91.3586C194.576 101.894 174.274 100.052 174.274 111.841C174.274 117.514 180.254 121.271 186.456 121.271C190.442 121.271 193.544 118.84 195.683 115.673C195.855 116.175 196.103 116.646 196.419 117.072ZM194.871 102.19V107.938C194.871 110.517 192.95 116.265 189.331 116.265C187.411 116.265 185.86 114.791 185.86 111.843C185.86 107.128 190.438 104.255 193.539 101.603C194.09 101.117 194.427 100.859 194.625 100.859C194.884 100.856 194.912 101.279 194.871 102.19Z" fill="#FCF8EE"/>
<path d="M238.204 110.809C237.977 110.821 237.756 110.88 237.552 110.982C237.349 111.083 237.169 111.226 237.023 111.399C235.514 112.777 233.528 113.516 231.483 113.461C227.498 113.461 223.068 111.179 222.182 104.767C222.135 104.572 222.131 104.369 222.171 104.172C222.21 103.975 222.293 103.789 222.413 103.627C222.532 103.466 222.686 103.332 222.863 103.237C223.04 103.141 223.236 103.085 223.437 103.073H223.839C247.317 103.073 243.724 83.7656 228.235 83.7656C216.424 83.7656 210.443 93.2709 210.443 102.701C210.443 111.985 216.201 121.121 227.791 121.121C230.327 121.11 232.807 120.375 234.939 119.005C237.071 117.634 238.766 115.684 239.825 113.384C239.942 112.978 239.927 112.545 239.781 112.147C239.636 111.75 239.367 111.409 239.015 111.174C238.794 110.964 238.508 110.836 238.204 110.809ZM227.794 87.3058C229.123 87.3058 230.009 88.2633 230.6 89.5876C232.151 93.0515 229.567 97.2499 224.917 98.5031L223.291 98.9419C223.154 98.9822 223.012 99.0037 222.869 99.006C222.353 99.006 222.126 98.6549 222.185 98.0573C222.702 93.8632 224.03 87.3058 227.795 87.3058H227.794Z" fill="#FCF8EE"/>
<path d="M245.959 116.119L244.409 117.666C244.04 118.035 244.04 118.035 244.04 118.698C244.04 120.687 244.04 120.762 246.107 120.762H261.388C262.644 120.762 262.717 120.762 262.717 119.436C262.717 118.11 262.57 118.11 261.757 117.154L261.019 116.343C259.026 114.132 258.804 114.132 258.804 111.112V68.6649C258.804 67.4134 258.804 67.4134 257.55 67.4134C256.696 67.3492 255.839 67.4751 255.04 67.782L245.442 70.5815C244.04 71.0203 244.04 71.0203 244.04 72.4973C244.04 73.8234 244.04 73.7505 245.442 74.1191C246.13 74.2463 246.751 74.6113 247.197 75.15C247.643 75.6887 247.884 76.3667 247.878 77.0652V111.474C247.878 114.125 247.806 114.276 245.959 116.119Z" fill="#FCF8EE"/>
<path d="M63.2553 53.7264L61.4089 55.5693C60.5225 56.4539 60.5224 56.5268 60.5224 57.78C60.5224 59.0332 60.5225 59.106 61.7772 59.106H78.1667C79.4215 59.106 79.4954 59.0314 79.4954 57.78C79.4954 56.5285 79.4955 56.5268 78.5362 55.5693L76.6895 53.7264C75.5825 52.6215 75.5086 52.4732 75.5086 50.8531V16.4452C75.5086 14.8234 75.5825 14.7506 76.6895 13.6457L78.5362 11.8027C79.4955 10.8453 79.4954 10.8453 79.4954 9.59206C79.4954 8.26601 79.4215 8.26602 78.1667 8.26602H65.3973C65.2227 8.24388 65.0454 8.27371 64.8877 8.35178C64.73 8.42985 64.5989 8.55267 64.5109 8.70482C64.3641 8.92598 64.3641 9.1436 64.2164 9.44023L53.5115 35.2284C53.1413 36.0384 52.9937 36.4816 52.7739 36.4816C52.6262 36.4816 52.4036 36.0428 52.0352 35.2284L40.2218 9.7351C39.5579 8.26162 39.484 8.26163 37.8607 8.26163H25.1635C3.16296 9.73511 6.55875 35.5233 19.774 35.5233C26.8604 35.5233 27.8216 26.4612 21.4721 26.4612C17.5591 26.4612 14.5316 23.882 14.5316 21.0078C14.5316 15.9239 19.6262 12.389 23.8346 12.389C24.6354 12.3427 25.4366 12.4776 26.1778 12.7837C26.919 13.0897 27.5813 13.559 28.1153 14.1565C28.7062 14.819 28.7061 15.1139 28.7061 16.4382V50.847C28.7061 52.467 28.706 52.5408 27.5251 53.7202L25.6787 55.5632C24.7923 56.4478 24.7923 56.5206 24.7923 57.7738C24.7923 59.0271 24.867 59.0999 26.1209 59.0999H35.2015C36.5302 59.0999 36.5304 59.0253 36.5304 57.7738C36.5304 56.5224 36.5303 56.4478 35.644 55.5632L33.7973 53.7202C32.6164 52.5408 32.6164 52.467 32.6164 50.847V20.4909C32.6164 19.5405 32.6164 19.0798 32.7166 19.0798C32.8169 19.0798 32.9964 19.4852 33.3534 20.2689L44.5005 43.4778C45.2391 44.9513 45.2391 45.0259 46.8632 45.0259H54.0242C55.279 45.0259 55.279 44.9513 55.279 43.6998C55.3697 42.8877 55.2167 42.067 54.8393 41.3417L63.7716 19.8275C64.0969 18.9981 64.2621 18.5743 64.3465 18.5743C64.4309 18.5743 64.4345 19.035 64.4345 19.9784V50.8505C64.4363 52.4732 64.4362 52.5469 63.2553 53.7264Z" fill="#FCF8EE"/>
<path d="M104.16 55.4957L104.307 55.7168C105.11 56.798 106.157 57.675 107.363 58.2765C108.568 58.8781 109.9 59.1872 111.248 59.1789H115.455C115.633 59.192 115.812 59.1667 115.979 59.1047C116.146 59.0427 116.298 58.9454 116.424 58.8196C116.55 58.6937 116.647 58.5423 116.71 58.3754C116.772 58.2086 116.797 58.0304 116.784 57.8529V57.6343C116.789 56.9258 116.525 56.2415 116.045 55.7194C114.126 53.8037 113.388 50.8567 113.388 48.2774V41.204C113.388 29.4152 108.958 21.8267 98.8439 21.8267C83.7856 21.8267 81.7185 34.9415 89.2472 34.9415C96.1868 34.9415 92.5701 25.3634 98.5494 25.3634C100.763 25.3634 101.797 27.058 102.315 29.7838C102.315 40.3211 82.0131 38.4773 82.0131 50.266C82.0131 55.9406 87.9924 59.6976 94.1943 59.6976C98.1811 59.6976 101.282 57.2658 103.421 54.0976C103.593 54.599 103.842 55.0706 104.16 55.4957ZM102.611 40.6116V46.359C102.611 48.9365 100.691 54.6839 97.0714 54.6839C95.1518 54.6839 93.6024 53.2104 93.6024 50.2625C93.6024 45.5472 98.1748 42.674 101.281 40.0219C101.831 39.5366 102.168 39.2794 102.367 39.2794C102.623 39.2794 102.652 39.7024 102.611 40.609V40.6116Z" fill="#FCF8EE"/>
<path d="M137.383 55.7159C137.118 55.9528 136.919 56.253 136.803 56.5882C136.686 56.9233 136.658 57.2824 136.719 57.6317V58.0705C136.719 59.1025 136.792 59.1025 137.826 59.1025H154.51C155.543 59.1025 155.543 59.1025 155.543 58.0705V57.4816C155.543 56.3767 155.543 56.3767 154.658 55.8616L151.039 53.8721C150.38 53.582 149.854 53.0564 149.563 52.3986L140.705 37.7357C140.189 36.852 140.189 36.7782 140.852 35.9682L145.947 29.1897C146.294 28.5822 146.841 28.1136 147.496 27.8636L151.409 25.9487C152.369 25.4327 152.369 25.4327 152.369 24.4006V23.738C152.369 22.706 152.369 22.706 151.335 22.706H140.188C139.154 22.706 139.155 22.706 139.155 23.738V24.3269C139.155 25.359 139.228 25.359 140.04 25.9487L141.813 27.2019C142.698 27.7908 142.623 27.7171 142.033 28.6017L138.933 32.8756C138.651 33.2617 138.487 33.4469 138.337 33.4469C138.17 33.4469 138.022 33.2249 137.752 32.801L135.314 28.7491C134.799 27.8645 134.875 27.8645 135.537 27.0545L136.423 26.0224C137.087 25.2124 137.162 25.2124 137.162 24.1795V23.7407C137.162 22.7086 137.087 22.7086 136.053 22.7086H119.295C118.262 22.7086 118.262 22.7086 118.262 23.7407V24.3296C118.262 25.3616 118.262 25.4344 119.147 25.9513L122.84 27.9409C123.5 28.2305 124.027 28.7558 124.318 29.4135L131.477 41.2768C131.994 42.0868 131.917 42.1597 131.329 42.9715L124.244 52.5487C123.872 53.1645 123.297 53.6332 122.619 53.8756L118.706 55.8651C117.747 56.3802 117.747 56.3802 117.747 57.4123V58.0749C117.747 59.1069 117.747 59.1069 118.781 59.1069H130.739C131.773 59.1069 131.773 59.1069 131.773 58.0749V57.486C131.773 56.4548 131.773 56.4548 130.887 55.866L128.524 54.3179C127.639 53.729 127.639 53.729 128.23 52.9137L133.249 46.1369C133.539 45.7403 133.704 45.5366 133.858 45.5366C134.012 45.5366 134.167 45.7578 134.431 46.2098L138.418 52.84C138.935 53.7246 139.009 53.7246 138.344 54.5355L137.383 55.7159Z" fill="#FCF8EE"/>
<path d="M188.06 74.4605C188.252 74.4514 188.443 74.4276 188.631 74.3894L191.243 73.9006C196.413 72.9212 197.014 72.2156 195.325 67.6521C194.834 66.354 194.271 65.0842 193.638 63.8486C193.198 62.9798 193.198 62.7621 193.8 61.8389C194.805 60.2665 195.335 58.4383 195.325 56.5733C195.18 53.3555 194.039 50.2617 192.059 47.7175C191.62 47.1199 191.678 47.1199 192.331 46.7943L194.128 45.9255C194.781 45.5999 194.781 45.5437 194.781 44.839V43.9684C194.781 43.2663 194.781 43.2075 194.078 43.2075H185.096C184.387 43.2075 184.387 43.262 184.387 43.9684V44.7293C184.387 45.4366 184.387 45.4367 185.041 45.8167L187.273 47.0663C190.43 48.8593 192.549 53.0419 192.549 56.5733C192.549 57.0121 192.169 59.8871 191.624 59.8871C191.514 59.8871 191.352 59.6151 191.024 59.1263C184.983 49.2384 176.382 38.2649 176.382 34.2982C176.382 32.5053 177.254 31.3144 178.398 31.3144C179.759 31.3144 181.501 32.9449 182.643 37.2364C182.783 37.7954 183.117 38.2869 183.586 38.6241C184.054 38.9613 184.627 39.1225 185.203 39.0793C187.049 39.0793 189.122 37.7217 189.122 35.6567C189.122 30.9844 184.169 28.3226 179.378 28.3226C174.806 28.3226 170.342 30.7667 170.342 36.3088C170.342 38.4817 171.267 41.1434 172.737 44.022C173.226 44.9996 173.226 45.0549 172.192 45.5428C167.511 47.771 162.83 50.9216 162.83 56.3548C162.83 64.2857 170.995 68.4148 179.161 68.4148C181.166 68.4037 183.161 68.1299 185.094 67.6003C185.356 67.5209 185.626 67.4694 185.898 67.4467C186.258 67.4467 186.367 67.6784 186.619 68.3612C187.312 70.0142 187.682 71.7843 187.708 73.5759C187.665 74.2508 187.685 74.4605 188.06 74.4605ZM183.949 65.208C182.967 65.4233 181.964 65.5325 180.959 65.5336C175.788 65.5336 170.888 62.7077 170.888 56.3522C170.886 54.9693 171.176 53.6017 171.739 52.3381C172.302 51.0745 173.125 49.9433 174.155 49.0181C174.535 48.6925 174.754 48.4749 174.97 48.4749C175.186 48.4749 175.352 48.6925 175.679 49.2358C178.618 54.0169 182.098 59.1772 184.55 63.8495C185.094 64.8815 185.038 64.9368 183.95 65.208H183.949Z" fill="#FCF8EE"/>
<path d="M160.991 19.2474C147.288 19.2474 147.265 40.5036 160.991 40.5036C174.695 40.5036 174.719 19.2474 160.991 19.2474Z" fill="#224B59"/>
</g>
<defs>
<clipPath id="clip0_205_13">
<rect width="271" height="147" fill="white"/>
</clipPath>
</defs>
</svg>
